<svg width="144" height="167" viewBox="0 0 144 167" fill="none" xmlns="http://www.w3.org/2000/svg">
<path fill-rule="evenodd" clip-rule="evenodd" d="M63.5894 58.0283C63.5642 57.6688 63.5402 57.3246 63.5025 57.0314H60.165C59.991 57.0314 59.7864 57.0099 59.569 56.987C58.9369 56.9207 58.1973 56.8431 57.7929 57.2494C57.5818 57.4617 57.3919 57.8283 57.2115 58.1765C57.1123 58.3683 57.0159 58.5546 56.9203 58.7061C56.4888 59.3914 56.0413 60.0574 55.5743 60.6932C54.5845 62.0418 53.46 63.4302 52.1642 64.1207C50.5978 64.9553 49.1236 63.7845 47.9001 62.3627C47.8852 62.3455 47.8698 62.3275 47.8539 62.3091C47.2738 61.6354 46.0531 60.218 45.9878 59.1366C45.9184 57.9915 46.6189 56.636 47.1721 55.9439C48.1689 54.6973 49.352 53.7334 50.4973 52.8027C52.2765 51.3571 54.1087 50.0329 55.9652 48.8046C56.2559 49.8923 56.5466 50.9796 56.8374 52.0669L56.8426 52.0865C57.0502 52.8638 57.2581 53.6411 57.466 54.4182C57.4975 54.5364 57.5285 54.6959 57.5621 54.8688C57.6388 55.2633 57.7292 55.7282 57.871 55.9339C58.0515 56.1958 58.4498 56.1548 58.7936 56.1191C58.9043 56.1076 59.0092 56.0967 59.0996 56.0967H62.2331C62.3494 56.0967 62.5102 56.1189 62.6888 56.1434C63.1146 56.2019 63.6403 56.2741 63.8949 56.0922C64.0926 55.9509 64.303 55.4994 64.4784 55.1224C64.5542 54.9599 64.6234 54.811 64.6822 54.7072C65.4171 53.4151 66.152 52.1228 66.8869 50.8305C68.228 48.4726 69.5689 46.1145 70.9098 43.7563C70.9785 44.4667 71.047 45.1772 71.1156 45.8875C71.1841 46.5979 71.2528 47.308 71.3213 48.0183C71.3433 48.2462 71.3573 48.4799 71.3714 48.7142C71.4168 49.4724 71.4624 50.236 71.7791 50.8164C72.1297 51.4588 72.5616 52.032 72.9931 52.6046C73.7985 53.6735 74.6026 54.7407 74.8748 56.2522C75.0202 57.0585 75.1657 57.8651 75.3109 58.6717C75.3268 58.7599 75.3616 58.8948 75.4016 59.0496C75.5023 59.4388 75.6356 59.9541 75.5808 60.1697C75.4836 60.5535 74.7475 61.022 74.2647 61.3296C74.1156 61.4245 73.9907 61.504 73.9161 61.5608C72.716 62.4762 71.4746 63.3641 70.1719 63.9355C68.8199 64.5283 67.7294 64.2875 66.5057 63.2346C66.487 63.2186 66.4681 63.2023 66.4488 63.1858C65.6614 62.5087 64.3669 61.3957 63.9201 60.231C63.704 59.6681 63.6442 58.8116 63.5894 58.0283ZM61.1562 84.5822C62.8047 84.8096 64.4532 85.037 66.1017 85.2644L76.108 82.4597C75.542 83.8412 74.9761 85.2224 74.4103 86.6039C73.2466 89.4436 72.0831 92.2834 70.9196 95.1231C70.338 96.543 69.7563 97.9627 69.1745 99.3826C68.8189 100.251 68.6299 101.116 68.4224 102.065C68.3962 102.185 68.3698 102.306 68.3428 102.429C67.8989 104.436 67.4551 106.442 67.0114 108.449L67.0063 108.445C66.3467 107.956 65.687 107.468 65.0277 106.979C64.8283 106.831 64.5788 106.683 64.315 106.527C63.7393 106.186 63.0952 105.805 62.7539 105.294C62.4466 104.833 62.2482 103.939 62.0749 103.156C62.0003 102.821 61.9304 102.506 61.8586 102.255L61.8427 102.199C61.1531 99.7926 60.4636 97.3859 59.7738 94.9791L59.752 94.9034C58.7062 91.2542 57.6606 87.6049 56.6152 83.9556C58.1287 84.1644 59.6425 84.3732 61.1562 84.5822Z" fill="#FF5678"/>
<path fill-rule="evenodd" clip-rule="evenodd" d="M140.429 74.9555C140.083 74.2627 139.696 73.9975 139.547 75.0058C139.384 76.1103 139.555 77.5022 139.489 78.6501C139.329 81.4215 139.265 84.2062 139.053 86.971C138.664 92.0483 138.421 97.4494 137.083 102.236C136.443 104.525 135.72 106.788 134.847 108.914C133.976 111.036 133.108 113.352 132.036 115.276C130.024 118.886 128.236 122.82 125.764 125.83C125.165 126.56 124.631 127.394 123.988 128.05C123.444 128.605 122.831 129.025 122.31 129.57C122.054 129.839 121.801 130.047 121.53 130.295C121.273 130.531 121.117 130.891 120.839 131.053C120.566 131.213 120.225 131.171 119.933 131.346C119.588 131.553 119.283 131.878 118.94 132.088C118.261 132.501 117.506 132.594 116.82 133.003C116.15 133.403 115.557 133.658 114.856 133.935C114.059 134.25 113.252 134.429 112.448 134.705C112.094 134.827 111.758 134.983 111.423 135.185C110.989 135.447 110.953 135.417 110.497 135.318C109.729 135.152 108.954 135.663 108.175 135.635C107.784 135.621 107.434 135.471 107.042 135.535C106.609 135.606 106.303 135.707 105.858 135.653C105.062 135.558 104.296 135.501 103.508 135.476C103.204 135.467 102.928 135.347 102.625 135.369C102.163 135.402 102.033 135.27 101.585 135.114C101.263 135.002 100.9 135.155 100.575 135.131C100.193 135.101 99.828 134.924 99.4463 134.882C98.6561 134.797 97.9373 134.651 97.1472 134.468C95.5075 134.088 93.8101 133.495 92.2454 132.694C91.4976 132.311 90.8801 131.818 90.2044 131.249C89.5594 130.705 88.8312 130.595 88.2312 129.967C87.0004 128.679 85.5975 127.619 84.44 126.188C83.2565 124.726 81.8388 123.672 80.6725 122.216C80.145 121.557 79.5533 121.015 79.0438 120.329C78.4876 119.579 78.0262 118.748 77.4356 118.05C76.2021 116.591 75.2352 114.638 74.0034 113.129C72.7215 111.558 71.6333 109.8 70.4689 108.059C69.9948 107.35 69.5112 106.703 68.9508 106.142C68.2956 105.485 68.7037 104.852 68.9385 103.92C69.5675 101.425 70.4342 99.3355 71.469 97.1418C72.4896 94.9782 73.5123 92.8445 74.655 90.8083C75.6176 89.093 76.6521 87.4959 77.6795 85.8995C78.1066 85.2357 78.5201 84.527 78.9751 83.8981C79.3267 83.4124 79.3744 83.4397 79.8126 83.5928C80.2111 83.7323 80.5928 83.7837 80.966 84.0422C81.6904 84.5443 82.3161 85.2444 83.1165 85.5136C83.9711 85.8007 84.7114 86.2397 85.5476 86.6023C87.0912 87.2721 88.7656 87.9987 90.136 89.261C91.5781 90.5896 92.6211 92.6873 93.6503 94.6022C94.7272 96.6051 95.4721 98.9177 96.3344 101.126C97.2264 103.41 98.0578 105.728 99.0229 107.952C100.79 112.024 103.107 115.55 106.424 116.733C107.875 117.249 109.689 117.904 111.103 116.882C111.722 116.435 112.255 115.772 112.868 115.303C113.58 114.757 114.303 114.286 114.912 113.505C116.102 111.978 117.394 110.628 118.54 109.019C119.597 107.534 120.52 105.844 121.507 104.259C121.999 103.469 122.403 102.567 122.819 101.692C123.025 101.257 123.17 100.753 123.375 100.326C123.561 99.9363 123.823 99.6837 124.026 99.3114C124.431 98.5683 124.739 97.6374 125.11 96.8478C125.58 95.8494 125.951 94.7794 126.252 93.6555C126.881 91.3059 127.114 89.0659 127.258 86.5742C127.766 87.1789 129.134 87.207 129.454 86.303C129.974 84.8375 128.864 84.6044 128.284 83.95C127.889 83.5037 127.629 82.8757 127.339 82.2986C127.143 81.9075 126.597 81.2715 126.524 80.7973C126.413 80.0849 126.964 79.3625 127.218 78.8254C127.573 78.073 127.903 77.295 128.251 76.5354C129.589 73.6146 131.012 70.7167 132.65 68.1241C133.38 66.9688 134.155 65.7626 135.044 64.8624C135.833 64.0629 136.608 62.5017 137.587 62.2198C137.036 63.4387 135.518 65.9785 136.578 67.5128C137.446 68.7691 139.158 65.9601 140.233 66.184C139.629 67.4267 138.58 69.4638 139.365 71.0548C140.038 72.4195 141.272 70.1812 142.099 70.1812C141.542 71.7726 140.986 73.3641 140.429 74.9555ZM68.0465 93.6798C67.5241 93.6291 66.9422 94.1047 67.0034 94.941C67.0623 95.7506 67.7211 95.8129 67.7925 96.5296C67.8603 97.2064 67.2938 98.5018 67.1316 99.1541C67.0321 99.5539 66.8642 101.146 66.5369 101.32C66.086 101.56 65.4115 100.285 64.9789 100.861C64.6361 101.317 65.0307 102.361 65.2324 102.754C65.5523 103.377 66.241 103.439 66.4213 104.134C66.5836 104.759 66.411 106.036 66.411 106.71C65.8356 106.276 65.4616 106.068 65.2109 105.187C64.9742 104.356 64.8794 104.52 64.3214 104.056C63.8526 103.665 63.5908 102.939 63.2686 102.338C62.9251 101.698 62.4357 101.038 62.3381 100.205C63.1451 100.205 63.9476 100.26 64.4483 99.1597C64.896 98.1748 64.4349 97.4324 63.6874 97.5747C63.2701 97.6542 62.1453 98.628 61.7747 98.3086C61.5655 98.1281 61.5234 97.4954 61.4509 97.1859C61.2769 96.4425 61.0785 95.7157 60.9178 94.9648C60.7655 94.2514 60.6289 93.5314 60.503 92.8074C60.4318 92.3993 60.1074 91.3419 60.2674 90.9848C60.5761 90.2964 61.3746 90.9555 61.4206 89.6517C61.4691 88.2735 60.5292 88.2768 59.886 88.3367C59.0481 88.4146 58.6322 86.7703 58.2119 85.9047C59.3203 86.164 60.3981 86.6219 61.512 86.8491C62.4165 87.0333 63.3206 86.4391 63.6859 87.9352C63.8159 88.4674 64.2849 90.1999 64.9012 89.3162C65.2644 88.7956 64.821 87.6219 64.6525 87.0826C66.4469 86.603 68.2763 86.7089 70.0722 86.1133C70.9277 85.8297 71.7164 85.2864 72.5524 84.9146C73.206 84.624 73.9606 83.9757 74.6337 83.8816C74.4764 84.6407 73.7953 85.2654 73.4347 85.8344C72.8877 86.6976 72.3645 87.5915 71.8376 88.4799C71.557 87.8151 71.1899 86.5827 70.6175 86.3506C69.767 86.0057 69.7049 87.6394 69.9023 88.4139C70.039 88.9508 70.2694 89.2551 70.5219 89.6637C70.9494 90.3566 70.665 90.5819 70.2617 91.2929C69.9246 91.8871 69.6306 92.4974 69.3191 93.1169C68.8395 94.0698 68.7545 93.7485 68.0465 93.6798ZM58.7886 102.929C57.1385 102.54 55.3747 102.454 53.7032 102.314C52.1393 102.182 50.5282 102.142 48.9601 102.209C47.3986 102.276 45.8021 102.058 44.249 102.326C42.8024 102.576 41.3406 102.086 39.8653 101.997C39.2448 101.959 38.6168 102.197 37.9962 102.09C37.6847 102.036 37.41 101.876 37.0911 101.884C36.6388 101.894 36.2026 102.075 35.7468 102.072C34.1042 102.061 32.2871 101.496 30.6739 102.226C29.9754 102.542 29.3197 102.399 28.6058 102.646C27.9148 102.885 27.2514 103.23 26.5667 103.485C25.1689 104.005 23.8848 104.697 22.5519 105.547C19.959 107.2 17.4386 110.016 16.2679 113.836C15.6036 116.003 15.294 118.514 15.555 120.859C15.8061 123.116 16.0172 125.578 16.8643 127.553C18.4428 131.233 20.13 135.064 22.7746 137.323C24.0823 138.439 25.2504 139.889 26.5539 140.99C27.125 141.472 27.7963 141.594 28.3551 142.093C28.8488 142.534 29.3468 143.037 29.8309 143.506C30.3983 144.057 30.7814 144.61 30.5721 145.644C30.364 146.672 29.81 147.704 29.373 148.555C28.3116 150.621 27.2473 152.733 26.1467 154.754C25.5611 155.829 24.8361 156.667 24.0956 157.51C23.6078 158.065 22.8341 158.599 22.4684 159.329C22.2264 159.813 22.4078 160.124 22.272 160.586C22.1461 161.014 21.8403 161.162 21.5681 161.375C20.6943 162.06 19.8642 162.236 18.9291 162.64C19.2862 161.309 19.7494 159.927 19.6038 158.458C19.4843 157.254 19.0568 156.731 18.2947 157.37C17.4937 158.041 16.7279 158.845 15.9194 159.492C15.1066 160.142 14.0761 160.436 13.1846 160.794C13.5894 159.585 14.0795 158.32 13.8542 156.929C13.646 155.644 13.1729 155.387 12.4476 156.092C10.8976 157.598 8.43534 158.365 6.60451 157.685C6.88358 156.302 7.87229 155.135 8.51946 154.096C9.28583 152.865 10.0638 151.653 10.9048 150.526C11.6987 149.462 12.4402 148.391 13.1639 147.232C13.2756 147.053 13.3617 146.793 13.5238 146.692C13.6988 146.583 13.956 146.795 14.097 146.613C14.3586 146.278 13.9923 145.796 13.8345 145.486C14.3356 145.316 14.9047 146.141 15.367 145.672C16.1076 144.92 15.4101 143.173 14.9734 142.547C13.7383 140.775 12.2806 139.42 11.1435 137.479C9.91381 135.379 8.517 133.46 7.33645 131.306C6.26133 129.344 5.05324 127.286 4.38676 124.962C3.66581 122.449 3.30098 119.959 3.50758 117.241C3.71909 114.458 4.13934 111.686 4.52757 108.945C4.85698 106.621 5.81781 104.395 6.76012 102.477C7.66258 100.639 8.54323 98.4779 9.63901 96.8714C10.1786 96.0802 10.8733 95.5645 11.43 94.8039C12.0655 93.9355 12.5297 93.3601 13.3192 92.7786C14.0938 92.2084 14.8457 91.5743 15.6181 90.9973C16.3862 90.4233 17.1268 89.973 17.9132 89.4738C18.5759 89.0532 19.2283 88.9003 19.9083 88.5158C20.7886 88.0182 21.6876 87.6002 22.6132 87.314C24.2207 86.8172 25.7936 86.2107 27.3944 85.7328C28.1529 85.5063 28.9452 85.5124 29.6878 85.2664C30.4876 85.0012 31.2368 84.9486 32.0472 84.7592C32.7772 84.5886 33.5037 84.5928 34.2414 84.452C34.6771 84.369 35.1165 84.4695 35.551 84.3937C36.0855 84.3008 36.4615 84.1413 37.0046 84.1843C37.7458 84.2432 38.3355 83.6542 39.0472 83.8075C39.727 83.954 40.3734 83.6886 41.0465 83.5228C41.4024 83.435 41.6751 83.582 42.0284 83.5971C42.5092 83.6178 43.0011 83.4699 43.4871 83.4638C44.481 83.4511 45.4817 83.3692 46.4752 83.4029C48.4588 83.4704 50.4052 83.4657 52.3897 83.8816C52.8621 83.9809 53.333 84.2756 53.797 84.3548C54.1792 84.4202 54.3668 84.2899 54.7541 84.5417C55.5159 85.0371 56.0343 86.3754 56.4314 87.3943C57.4349 89.9697 57.7417 93.0447 58.337 95.8384C58.9517 98.7226 59.7647 101.169 60.9224 103.664C60.2011 103.48 59.5118 103.1 58.7886 102.929ZM50.7646 71.3063C50.0998 69.3357 49.7353 67.1963 49.1796 65.1637C49.7718 65.0337 50.4121 65.3798 51.0119 65.4069C51.7356 65.4401 52.3754 65.3913 53.0848 65.1575C54.4001 64.7237 55.8776 63.9384 56.9214 62.6722C57.437 62.0468 57.8232 61.2733 58.0776 60.3776C58.2341 59.8262 58.3292 59.2631 58.4067 58.6823C58.4261 58.5372 58.4203 57.8267 58.5048 57.7191C58.694 57.4775 59.6294 57.4308 59.8901 57.4601C60.6045 57.5408 61.3225 57.6771 62.0497 57.7451C62.6129 57.7979 63.1896 57.6816 63.406 58.5403C63.5946 59.2879 63.5183 60.1914 63.6936 60.9702C64.0755 62.668 65.0035 64.4007 66.1655 65.1047C67.3243 65.8065 69.1285 65.9464 70.3507 65.706C71.8413 65.4128 72.9201 64.0448 74.0409 62.7631C74.0409 66.9764 73.9429 71.0991 74.8056 75.1933C74.9999 76.1162 75.2361 77.027 75.5358 77.8905C75.6727 78.2847 76.3392 79.4062 76.273 79.8228C76.2002 80.2797 74.948 80.7544 74.6528 80.8988C73.9317 81.2512 73.204 81.589 72.479 81.924C71.1865 82.5213 69.7806 83.0125 68.4297 83.1474C67.1116 83.2791 65.8138 83.2343 64.4954 83.2751C63.1799 83.3156 62.0148 83.083 60.7257 82.6558C59.2698 82.1736 57.7389 81.9337 56.3019 81.3774C55.0463 80.8912 54.2348 78.9273 53.4645 77.5449C52.3927 75.6208 51.5128 73.5231 50.7646 71.3063ZM48.91 60.7666C48.6556 61.0631 47.6 60.4297 47.3799 60.1846C47.0753 59.8451 47.0143 58.6267 47.4504 58.3101C47.8666 58.0081 49.2312 59.0022 48.6056 57.2714C48.4647 56.8814 48.2552 56.8958 48.3817 56.4193C48.4544 56.1463 48.9317 55.7181 49.1053 55.624C49.8243 55.235 49.9096 56.3655 50.5262 56.734C51.151 57.1072 51.8708 56.8536 52.5143 57.2213C52.7603 57.3617 52.885 57.6299 53.0906 57.2548C53.1925 57.0687 53.1441 56.5757 53.1052 56.3648C52.9157 55.3412 51.9296 54.6971 51.3894 54.1029C52.7594 53.1045 54.0369 52.1604 55.2468 50.7872C55.3371 51.142 55.5923 51.7084 55.4199 52.0894C55.3227 52.3038 54.8156 52.5525 54.6596 52.7572C54.1866 53.3791 53.5489 54.7825 54.05 55.7153C54.658 56.8472 56.1084 54.8799 56.5234 54.2052C57.2677 55.2812 57.2163 57.7363 56.6421 58.8892C56.5493 57.9321 55.2922 56.4353 54.7344 57.5566C53.9457 59.1428 55.9554 59.437 56.5408 59.2419C56.2121 60.0044 55.591 61.2162 54.9235 61.3504C54.2915 61.4778 53.9982 60.2846 53.623 59.6955C53.2972 59.1841 52.5883 57.9864 52.2494 59.0126C51.9137 60.0296 52.6591 61.1761 53.0251 61.9265C52.5173 62.0211 52.0298 62.3564 51.5086 62.2787C51.2597 62.2417 50.6681 62.1976 50.4595 62.0869C49.8163 61.7458 49.9578 60.3205 50.1181 59.5564C50.2813 58.7802 50.4507 57.4523 49.4974 58.0149C48.4842 58.6127 49.4488 60.1383 48.91 60.7666ZM56.9007 47.6281C57.3283 46.6085 57.6761 45.5092 57.9378 44.3799C58.1975 43.2589 58.1862 42.3511 58.9535 41.8014C60.3384 40.8097 61.957 39.7165 62.9744 37.9792C63.3696 37.3045 63.5529 36.2519 64.1091 35.841C64.794 35.3352 65.7189 35.082 66.4541 34.7051C67.3146 34.2639 68.2192 34.0334 69.0634 33.5284C69.6608 33.171 70.4793 32.4845 71.1233 32.4085C71.0807 33.3219 70.9563 34.2606 71.0505 35.1764C71.114 35.7935 71.6551 36.6256 71.6067 37.1281C71.5834 37.3692 71.3312 37.4692 71.2337 37.6709C71.1132 37.9205 71.1079 38.2685 71.0664 38.5523C70.9295 39.4926 70.8343 40.435 70.6072 41.3452C69.6565 45.1537 67.0923 47.7305 65.3641 50.7787C64.9022 51.5935 64.4823 52.4461 64.094 53.3376C63.8494 53.8993 63.6239 54.9248 63.1599 55.185C62.6026 55.4976 61.5157 55.0017 60.941 54.9512C60.3763 54.9017 59.9183 55.1892 59.3726 55.1338C58.807 55.076 58.3895 55.4435 58.1245 54.5954C57.9119 53.9146 57.8956 53.0665 57.7289 52.3546C57.3749 50.8421 56.2088 49.2785 56.9007 47.6281ZM61.0787 28.1992C60.2833 28.236 59.5659 27.7054 58.9052 27.1274C60.2582 26.3416 61.6426 26.4587 63.0018 27.0454C62.4703 27.7323 61.7973 28.1659 61.0787 28.1992ZM57.9173 22.954C58.2503 21.1903 59.2083 19.1556 60.1198 17.9086C60.2739 18.9919 60.846 18.7926 61.3745 19.1516C61.826 19.4583 61.8823 20.0811 62.4124 20.2684C62.808 20.4081 63.4716 20.4902 63.7869 20.0226C64.305 19.254 63.7067 18.7831 63.2868 18.4491C63.6101 17.8242 63.9543 17.2169 64.3088 16.6274C64.5539 16.2197 65.0302 15.6519 65.0463 15.0576C65.0709 14.1444 64.5641 14.532 64.1865 14.8137C64.0079 14.947 63.7587 15.2589 63.5565 15.311C63.3627 15.3608 63.1719 15.1761 62.9976 15.2459C62.5754 15.415 61.7888 17.4368 61.1761 16.5C60.9218 16.1112 61.4655 14.8831 61.6217 14.562C62.1482 13.4804 63.1671 13.8533 63.9899 13.7604C64.8886 13.6587 65.7884 13.394 66.6869 13.3251C67.6917 13.2482 68.1362 14.4514 68.8406 15.3563C69.5101 16.2164 70.5217 17.1613 71.387 17.5592C72.2148 17.9398 72.597 17.6562 72.63 19.128C72.7028 22.3807 75.2261 20.707 76.6665 21.0349C77.5078 21.2262 77.646 21.9469 76.9437 22.6836C76.5847 23.0604 76.1639 23.1984 75.7376 23.2996C75.1962 23.4282 74.9857 23.6056 74.5246 24.0496C73.0073 25.5103 70.5065 26.2963 68.7432 25.6188C67.7689 25.2444 66.771 24.5509 65.9558 23.699C65.2522 22.9639 64.6067 22.0651 63.7954 21.572C62.8126 20.975 61.8788 21.4371 60.8623 21.4255C59.5804 21.4107 58.8912 21.7544 57.9173 22.954ZM72.4939 33.5215C72.6333 32.9379 73.4931 29.8095 74.119 30.1907C74.278 30.2877 74.5733 31.5425 74.6912 31.7713C75.0708 32.5071 75.6117 33.0641 76.1469 33.5411C75.2584 34.6041 73.9981 34.8695 73.0065 35.6864C71.9225 36.5791 72.288 34.3828 72.4939 33.5215ZM69.2738 61.6274C68.7595 61.5602 68.2444 61.5033 67.7293 61.4502C67.2705 61.403 66.7506 61.1556 66.3057 61.1518C65.9229 61.1485 65.6617 61.5326 65.2981 61.1893C64.9915 60.8999 64.8863 60.165 64.7385 59.7241C65.4641 59.7821 66.8955 60.6559 67.4807 59.6986C67.8886 59.031 67.5217 58.0161 67.076 57.621C66.2413 56.8805 65.5813 57.5188 64.7774 57.9067C64.7851 56.4943 65.2821 55.8304 65.8978 54.8616C66.5574 53.824 67.2593 52.7556 67.8281 51.611C68.3079 52.1762 69.4717 53.5919 70.0458 52.4791C70.6241 51.3581 69.4719 50.3432 68.9267 49.916C69.3794 49.015 69.8319 48.1139 70.2843 47.2127C70.4414 48.5116 70.4007 49.8115 70.7824 51.037C71.1315 52.1576 71.6185 53.3199 72.2727 54.1208C71.6575 54.6575 71.0423 56.1753 71.6872 57.0553C72.051 57.5519 72.3823 57.3582 72.7513 57.0133C73.2468 56.5502 73.3647 56.2862 73.9237 56.6865C74.1691 56.8621 74.5779 57.1249 74.5169 57.5429C74.4664 57.8894 73.7819 58.5052 73.6013 58.7493C72.7761 59.8661 71.8487 60.7333 70.8923 61.5979C70.7465 60.8973 70.6021 58.7857 69.8534 58.8902C69.1287 58.9914 69.2738 60.9168 69.2738 61.6274ZM81.4618 33.8022C87.0681 31.6892 92.6094 29.4851 98.3157 27.9442C99.7006 27.5703 101.096 27.2874 102.48 26.9111C103.845 26.54 105.235 26.42 106.595 26.0508C109.335 25.3074 112.082 24.7988 114.865 24.4428C117.582 24.0951 120.252 23.9542 122.958 24.6124C124.083 24.8861 125.28 24.7816 126.372 25.2017C126.923 25.4138 127.544 25.5983 128.056 25.9637C128.628 26.3707 129.114 27.0513 129.65 27.5481C130.735 28.5526 131.409 29.6109 132.109 31.1641C132.849 32.8065 132.912 34.8143 132.943 36.7553C132.974 38.6839 132.611 40.5561 132.217 42.3806C131.814 44.2464 131.635 46.3148 131.048 48.0818C130.909 48.4996 130.34 50.1262 129.864 49.9216C129.559 49.7905 129.588 49.0702 129.569 48.6947C129.508 47.529 129.414 44.629 128.045 45.8904C127.515 46.3788 127.112 47.3026 126.716 47.9848C126.224 48.8317 125.732 49.6772 125.236 50.5182C124.371 51.9837 123.516 54.058 122.284 54.9276C122.376 54.0491 123.89 45.3143 121.996 46.3122C121.652 46.4934 121.352 47.1867 121.127 47.5809C120.703 48.3243 120.299 49.0893 119.9 49.8612C119.195 51.2264 118.506 52.6063 117.82 53.9918C117.181 55.2845 116.456 56.4962 115.671 57.6111C115.234 58.2299 113.481 60.6642 113.339 58.4042C113.31 57.9484 113.461 57.4138 113.519 56.9692C113.637 56.0711 113.71 55.1588 113.819 54.2583C114.043 52.4138 114.355 50.6027 114.688 48.7942C115.016 47.0207 115.25 45.2655 115.262 43.4273C115.275 41.6085 115.315 39.6431 114.632 38.0314C114.126 36.8379 113.252 35.4838 112.393 34.8511C111.228 33.9938 110.078 34.0398 108.816 33.7855C106.315 33.2818 103.66 33.8022 101.177 34.3521C98.8457 34.8685 96.6266 35.8924 94.3575 36.6716C91.8057 37.548 89.3729 38.9224 86.911 40.0755C84.1962 41.3468 81.4828 42.7043 78.8195 44.1931C78.9502 43.5299 78.9364 42.8555 79.0358 42.1919C79.1143 41.6674 79.3216 41.4523 79.479 40.9989C79.811 40.0425 79.6543 38.6454 78.7628 38.6771C78.0202 38.7032 77.1758 39.574 76.5811 40.1258C75.9747 40.6884 74.6719 41.5639 74.31 42.5306C73.3369 45.1306 77.1679 43.8746 76.4996 45.9914C76.3159 46.5727 76.0754 46.525 76.1228 47.291C76.1753 48.1429 76.1553 48.5442 75.9546 49.3897C75.5999 50.8839 75.4392 52.4607 75.0672 53.9429C74.0571 52.1871 72.2144 50.1884 71.9994 47.7911C71.7702 45.2339 72.658 42.8069 73.0883 40.4018C73.2601 39.4409 73.1217 38.1404 73.3915 37.2597C73.6997 36.2536 74.8916 36.2812 75.5386 36.0887C77.5337 35.4947 79.4908 34.5451 81.4618 33.8022ZM143.953 68.4553C143.85 67.3826 143.262 66.6728 142.562 66.4581C141.872 66.2467 142.208 66.1356 142.231 65.0632C142.252 64.1047 142.123 62.9324 141.511 62.3847C140.956 61.889 140.225 62.061 139.605 62.0221C140.036 60.2329 140.463 57.4811 138.556 57.9637C137.015 58.3537 135.864 59.8416 134.619 61.1452C133.346 62.4783 132.246 63.7341 131.173 65.3927C130.095 67.0592 129.076 68.8059 128.167 70.6712C127.258 72.5368 126.472 74.512 125.839 76.6C125.242 78.5652 124.704 80.4619 125.015 82.6357C125.176 83.7629 125.551 84.8094 125.683 85.9439C125.819 87.1128 125.639 88.295 125.411 89.4155C124.976 91.5571 124.215 93.4394 123.353 95.276C122.623 96.8304 121.988 98.3739 121.099 99.7443C119.989 101.455 118.903 103.163 117.742 104.809C116.825 106.109 115.712 107.43 114.655 108.494C114.014 109.14 113.245 109.433 112.551 109.93C111.902 110.393 111.352 110.869 110.648 111.154C109.936 111.441 109.189 111.942 108.439 111.919C107.685 111.895 106.869 111.365 106.15 111.052C104.649 110.399 103.502 109.766 102.428 108.066C100.154 104.466 98.6558 99.8936 96.9738 95.6855C95.4421 91.8527 93.6357 87.5658 91.1518 84.8384C89.9642 83.5341 88.5631 82.6034 87.1932 81.7752C86.5194 81.3675 85.7851 81.222 85.0849 80.9379C84.4591 80.6838 83.7973 80.6893 83.2118 80.3375C82.5069 79.9143 81.8381 79.1478 81.0576 79.0226C80.8068 78.9825 80.6043 79.1202 80.3616 79.0016C80.0647 78.8563 79.789 78.3953 79.4777 78.1981C78.0487 77.2934 77.2328 76.3974 76.5784 74.3186C75.8986 72.1583 75.4522 69.8705 75.5179 67.4812C75.5502 66.3088 75.6663 65.1259 75.8132 63.9723C75.951 62.8905 75.9664 61.7416 76.1434 60.6864C76.2195 60.2329 76.3764 59.8128 76.4438 59.3544C76.5061 58.9314 76.4533 58.433 76.573 58.0324C76.6776 57.6821 76.8744 57.5669 77.0084 57.2683C77.2477 56.7356 77.0671 56.4124 77.0261 55.8597C76.952 54.8552 77.2654 53.7629 77.4001 52.7823C77.568 51.5572 77.8238 50.3708 78.0177 49.1561C78.1394 48.3953 78.1315 47.547 78.6041 47.0461C79.1119 46.5076 80.0745 46.4498 80.681 46.2231C82.3384 45.6031 83.9847 44.9435 85.6422 44.3273C86.4334 44.0334 87.2035 43.6698 87.9604 43.2284C88.4052 42.9692 88.5772 43.0576 89.0284 42.993C89.3685 42.9444 89.6492 42.6446 89.9709 42.5195C90.6395 42.26 91.0257 42.7771 91.6001 43.16C92.2525 43.5948 93.0984 43.7859 93.807 43.9322C95.2558 44.2313 97.0306 43.8859 98.471 43.5252C100.092 43.119 101.732 42.4466 103.142 41.2284C103.42 40.9885 103.634 40.7111 103.949 40.8224C104.203 40.9118 104.421 41.4101 104.632 41.6233C105.269 42.269 106.046 42.4431 106.772 42.01C107.363 41.658 107.758 41.0241 108.022 40.1987C108.224 39.5678 108.305 38.5987 108.805 38.3005C109.303 38.0038 110.347 38.3553 110.874 38.5011C111.545 38.6867 112.081 39.2463 112.591 39.8988C113.721 41.3447 113.855 43.2497 113.632 45.295C113.109 50.0976 111.774 54.6964 111.848 59.634C111.876 61.5203 112.419 63.2797 113.984 63.0577C114.755 62.9485 115.209 62.1537 115.785 61.5144C116.429 60.7982 116.999 60.056 117.54 59.1775C118.683 57.3249 119.665 55.2937 120.703 53.3218C120.825 55.1189 120.172 56.9045 120.976 58.5648C121.635 59.9256 122.56 58.9826 123.185 58.0838C124.118 56.7446 124.973 55.2392 125.811 53.7783C126.484 52.6051 127.173 50.6857 128.086 49.8886C128.056 51.3781 128.749 53.9283 130.048 53.2612C131.246 52.6452 132.04 50.2132 132.554 48.69C132.863 47.7709 133.141 46.8298 133.439 45.9029C133.777 44.8522 133.837 43.9437 133.996 42.834C134.306 40.6726 134.576 38.5386 134.809 36.3515C135.049 34.0863 134.789 32.1108 134.248 29.9878C134.021 29.0952 133.976 28.2473 133.58 27.4469C133.167 26.6139 132.629 25.7861 132.107 25.0923C131.013 23.6365 129.591 23.1248 128.27 22.2562C127.547 21.7806 126.931 21.7374 126.164 21.5869C125.436 21.4442 124.742 21.1701 124.003 21.1106C122.113 20.9584 120.242 20.4213 118.342 20.5888C117.459 20.6669 116.571 20.7409 115.687 20.7876C114.98 20.8249 113.982 21.1283 113.302 20.837C113.657 19.7697 114.394 18.8964 114.366 17.6213C114.339 16.4009 113.633 15.7852 112.901 15.4688C111.918 15.0447 110.82 14.7991 109.794 14.8548C108.939 14.901 107.754 15.4018 106.953 14.7543C107.483 13.7208 108.068 12.6106 108.189 11.2987C108.348 9.56711 107.379 8.6315 106.385 7.99266C105.359 7.33282 104.134 7.15424 103.033 6.91975C101.91 6.68007 100.816 6.54017 99.6894 6.73409C97.4352 7.1224 95.1809 7.52367 92.9208 7.98252C90.8104 8.41116 88.4577 9.16253 86.3501 8.39276C84.1193 7.5777 84.9026 4.78266 83.978 2.49198C82.9462 -0.064319 80.3672 -0.115747 78.5885 0.0649593C76.4089 0.286477 73.8555 1.59412 71.9597 3.12965C71.5706 3.44482 71.1573 3.693 70.7772 4.01926C70.3911 4.35047 70.1007 4.83715 69.6534 5.02682C68.6039 5.47151 67.3854 4.58449 66.3195 4.54745C64.0143 4.46772 61.3002 6.10091 59.661 8.44561C58.612 9.94622 57.2147 14.4978 59.0014 16.0301C58.2273 17.199 57.6656 18.6109 57.2304 20.0905C57.0125 20.8313 56.8282 21.5921 56.6566 22.3574C56.5336 22.9063 56.4685 23.8087 56.1845 24.2487C55.9066 24.6794 55.5152 24.9411 55.2299 25.4129C54.8561 26.0314 54.5091 26.6778 54.2176 27.3832C53.7367 28.5457 53.3228 29.9043 53.2018 31.2561C53.0907 32.4953 53.2727 33.7232 53.9703 34.548C54.3679 35.0181 54.867 35.2835 55.3773 35.3371C55.934 35.3956 56.5082 34.9872 57.0486 35.0761C57.4925 35.149 57.4447 35.4772 57.7261 35.9146C58.0466 36.4123 58.5381 36.6678 58.9883 36.807C59.4058 36.9361 59.843 36.9618 60.2617 36.8278C60.8006 36.6553 61.2618 36.0851 61.8182 36.0344C60.988 37.1278 60.1092 38.146 59.1744 39.0493C58.1558 40.0338 57.1885 40.3546 56.0061 40.7181C53.6704 41.4362 51.4472 42.5165 49.0614 42.8932C47.9272 43.0723 46.8157 43.4323 45.6742 43.5646C44.2754 43.7267 42.8752 43.7238 41.4733 43.692C40.3901 43.6675 39.2889 43.6896 38.2209 43.3978C37.0726 43.0838 35.8842 43.1867 34.7132 43.194C33.5116 43.2013 32.3166 43.1716 31.12 42.9987C29.9811 42.834 28.8724 41.9824 27.7837 41.4855C25.548 40.465 23.4867 38.7974 21.6622 36.6987C20.7809 35.685 19.8081 34.7964 19.0294 33.6114C18.3227 32.5361 17.6533 31.2516 17.0194 30.0815C15.6357 27.5271 15.2253 24.2503 14.1375 21.4878C13.5714 20.05 12.3505 16.3193 11.1445 19.0091C10.4456 20.5685 10.3404 22.5754 10.0693 24.3437C9.51259 22.8844 8.9779 21.4022 8.39402 19.9648C8.11889 19.2873 7.65487 18.0572 6.98016 18.3929C6.33381 18.7147 6.03129 20.5463 5.89045 21.3656C5.6163 22.9597 5.60695 24.6304 5.12735 26.1491C4.75237 25.029 4.48051 23.6294 3.62104 23.0802C2.56839 22.4079 1.52689 23.1203 1.00121 24.4931C-0.294927 27.8776 -0.0704593 32.2707 0.368146 35.9325C1.22552 43.0907 3.57513 50.0896 7.37269 54.9797C8.27728 56.1447 9.32928 57.035 10.3168 58.0404C10.7136 58.4445 11.0689 58.8029 11.549 58.9593C12.1559 59.1567 12.4321 59.6736 13.0077 60.04C15.1566 61.4082 17.5726 61.5352 19.7747 62.5951C20.2892 62.8428 20.8235 62.6906 21.3315 62.9374C21.8911 63.2092 22.275 63.2486 22.8513 63.3826C24.0351 63.6579 25.2939 64.1219 26.5092 64.1547C27.725 64.1872 28.9022 64.4135 30.1269 64.51C31.3886 64.6093 32.5623 64.5057 33.8194 64.2856C36.5473 63.8079 39.5058 63.6996 42.0263 62.0133C43.0076 61.3568 43.8181 60.5146 44.5489 59.3629C44.7524 59.0423 45.3225 58.1827 45.0993 57.6644C44.856 57.0996 44.3185 57.6309 43.9982 57.8335C41.4985 59.4143 38.7537 59.8314 36.0537 60.1511C34.7912 60.3004 33.511 60.5656 32.2453 60.6135C31.5929 60.6382 31.02 60.5422 30.3899 60.3528C29.6683 60.1358 28.94 60.2304 28.2121 60.1105C26.9476 59.9024 25.6925 59.5745 24.4319 59.3521C23.3742 59.1655 22.1913 59.4146 21.2334 58.7191C20.3408 58.0713 19.2706 57.9602 18.3078 57.5084C17.1734 56.976 16.0015 56.6844 14.8867 56.035C14.3315 55.7115 13.7735 55.5492 13.219 55.2843C12.7712 55.0703 12.3918 54.5461 11.9425 54.2553C10.8883 53.573 9.92709 52.3149 9.11612 51.1436C7.3012 48.5227 5.77321 45.3981 4.57332 42.1147C3.90896 40.2966 3.52922 38.051 3.07865 36.1002C2.65923 34.2842 2.29031 32.2556 2.07141 30.3688C1.99353 29.6981 1.4431 26.3051 2.21013 26.2775C3.26983 26.2397 3.9493 28.9432 4.24395 30.0055C4.68744 31.6045 5.24164 33.8188 6.16132 34.9957C7.02115 36.096 7.52321 34.0032 7.51009 33.0273C7.50058 32.3184 7.31727 32.0056 7.04918 31.445C6.67059 30.6529 6.5404 30.0225 6.50974 29.04C6.43973 26.7915 6.7288 24.5634 6.99557 22.3593C7.637 23.9835 8.31909 25.5495 8.76393 27.3133C8.99627 28.2343 9.3424 30.9414 10.376 30.4936C11.0124 30.2181 11.268 28.8437 11.3605 28.023C11.5671 26.1918 11.4333 24.3442 11.7884 22.5331C12.2342 22.84 12.4497 24.0894 12.6448 24.6865C13.0357 25.8811 13.3258 27.0798 13.5983 28.3377C14.1211 30.7529 15.1413 32.769 16.1558 34.8025C17.1824 36.8603 18.4059 38.6124 19.8109 40.1383C21.1815 41.6264 22.7803 43.2874 24.3999 44.1464C25.2325 44.588 26.095 44.8838 26.9242 45.3457C27.2982 45.554 27.6696 45.7765 28.0493 45.9629C28.5628 46.2146 29.0667 46.2141 29.5734 46.4026C30.3842 46.7043 31.0607 46.9876 31.9135 47.024C32.7416 47.0594 33.5723 47.0332 34.397 47.1294C36.0905 47.3271 37.865 47.3679 39.5673 47.367C41.4864 47.366 43.4438 47.4203 45.332 46.8727C47.2584 46.3144 49.2217 45.9296 51.1218 45.2452C53.292 44.4634 55.4434 43.521 57.602 42.6717C56.6651 45.1136 54.9758 47.6496 53.254 48.9261C52.3959 49.5621 51.5099 50.304 50.6135 50.8051C49.6351 51.3522 48.6672 51.7452 47.749 52.5022C46.7534 53.3227 46.4084 54.1057 45.9316 55.5563C45.4545 57.0081 45.1256 58.403 45.2508 60.0489C45.3477 61.3195 45.7147 62.6779 46.3655 63.5755C46.7001 64.0372 47.1132 64.3795 47.5582 64.5687C48.0619 64.7829 48.2445 64.6301 48.3737 65.3691C48.4593 65.8582 48.3616 66.5527 48.4177 67.0851C48.4954 67.8216 48.6221 68.5475 48.7526 69.2675C49.0507 70.9132 49.3741 72.5677 49.8917 74.1027C50.3169 75.3627 50.863 76.5224 51.4456 77.6409C51.6676 78.0674 52.0939 78.5864 52.2279 79.0839C52.322 79.4333 52.2008 80.3234 51.9117 80.534C51.7589 80.6454 50.9885 80.187 50.8781 80.1493C50.4251 79.9933 49.9989 79.8681 49.5677 79.6466C48.5318 79.1146 47.2889 79.0806 46.1868 78.9077C45.2174 78.756 44.2308 78.5666 43.2541 78.6194C42.7994 78.6442 42.351 78.8763 41.9061 78.8957C41.4311 78.9164 41.0055 78.7558 40.5214 78.7956C40.0773 78.8324 39.9202 78.8261 39.4935 79.0197C39.0402 79.2255 38.8221 79.0091 38.3725 78.9445C37.8495 78.8692 37.3745 79.2262 36.8575 79.2328C36.3595 79.2391 35.8714 79.1679 35.3669 79.1957C34.4469 79.246 33.4939 79.526 32.5954 79.505C32.0635 79.4923 31.7047 79.6062 31.1882 79.7603C30.6106 79.9325 30.0134 79.6496 29.4464 79.8848C28.6563 80.2125 27.8122 80.2149 26.9775 80.4626C26.0658 80.7331 25.188 81.1505 24.2663 81.3508C22.2943 81.7792 20.3364 82.6617 18.4438 83.5633C10.3106 87.4389 3.58792 97.8596 2.06075 110.134C1.61969 113.68 0.997771 117.671 1.27979 121.276C1.54984 124.732 2.48739 128.255 3.74303 131.207C4.97044 134.094 6.48531 136.839 8.15382 139.219C8.98118 140.399 9.76969 141.665 10.6858 142.707C11.0676 143.141 11.4041 143.699 11.7963 144.103C12.2652 144.586 12.8671 144.815 13.3956 145.126C11.4554 146.702 9.60392 148.713 8.00051 150.942C6.61222 152.872 4.81041 155.633 5.01012 158.656C5.28558 162.83 9.2432 161.482 11.107 160.905C11.107 162.904 11.1181 165.304 12.9891 165.072C13.7719 164.975 14.7086 164.5 15.3889 163.941C16.0036 163.436 16.3998 163.226 17.1032 162.993C17.1032 163.955 16.952 165.339 17.4944 166.083C18.0834 166.892 19.1716 166.835 19.8873 166.531C21.5315 165.832 23.3027 165.072 24.3722 162.971C24.8922 161.95 25.3755 160.827 25.6903 159.64C25.8397 159.076 25.8443 158.34 26.1021 157.858C26.3419 157.41 26.7896 157.107 27.0831 156.735C27.7202 155.925 28.2531 154.957 28.8068 154.035C29.4692 152.932 30.21 151.92 30.8151 150.747C31.9079 148.63 32.6843 145.94 32.3044 143.269C31.9492 140.773 30.5145 138.455 28.8199 137.882C28.0204 137.611 27.5148 136.682 26.8884 135.996C26.2093 135.253 25.4385 134.511 24.7131 133.869C23.9326 133.178 23.1135 132.412 22.3899 131.603C21.6639 130.792 21.108 129.597 20.5397 128.567C19.3567 126.425 18.0069 124.194 17.6206 121.446C17.4659 120.344 17.2458 119.147 17.4921 118.05C17.7526 116.89 18.3265 115.957 18.8499 115.03C19.9958 113.002 21.6412 111.799 23.2801 110.794C24.1671 110.249 25.0451 109.807 25.944 109.393C26.265 109.246 26.5159 108.951 26.8499 108.834C27.3167 108.67 27.8145 108.608 28.2875 108.453C29.1903 108.158 29.9816 107.83 30.9093 107.819C31.9702 107.807 33.0291 107.689 34.084 107.534C35.0057 107.398 35.7968 107.592 36.7043 107.622C37.0954 107.634 37.494 107.529 37.8849 107.558C38.3637 107.595 38.8146 107.782 39.3017 107.795C40.0946 107.816 40.8326 107.935 41.6085 107.78C41.9938 107.703 42.3216 107.868 42.7105 107.813C42.8055 107.8 42.8975 107.623 42.9868 107.62C43.1636 107.615 43.2613 107.744 43.4417 107.774C45.3223 108.086 47.2002 107.535 49.0789 107.655C50.9166 107.772 52.8303 107.609 54.6727 107.456C56.4965 107.305 58.5544 107.036 60.25 105.975C60.8811 105.58 61.2784 104.602 61.8857 105.268C62.6518 106.109 63.2717 107.132 64.1166 107.862C64.8405 108.487 65.7356 108.682 66.5435 108.981C66.9245 109.122 67.3882 109.419 67.7834 109.323C68.2887 109.2 68.2364 108.844 68.5906 109.539C69.1151 110.568 69.452 111.767 70.012 112.78C70.6044 113.851 71.2665 114.917 71.9509 115.869C73.216 117.627 74.419 119.496 75.6693 121.295C76.3135 122.222 76.7137 123.386 77.3855 124.269C78.0174 125.099 78.6264 125.996 79.2725 126.799C80.7579 128.647 82.3895 130.282 83.9562 131.984C84.7111 132.804 85.3709 133.746 86.1979 134.424C86.9982 135.081 87.8528 135.682 88.6133 136.4C90.105 137.808 91.845 138.686 93.5586 139.509C94.4768 139.95 95.408 140.315 96.3611 140.562C97.2323 140.787 98.0558 140.871 98.9234 141.02C99.7224 141.159 100.53 141.203 101.323 141.356C101.791 141.446 101.916 141.339 102.325 141.251C102.692 141.171 102.965 141.448 103.346 141.476C105.085 141.603 106.865 141.802 108.621 141.583C109.531 141.47 110.342 141.554 111.219 141.132C112.089 140.713 113.024 140.843 113.903 140.391C115.601 139.521 117.381 139.042 119.032 137.929C119.725 137.461 120.613 137.143 121.226 136.473C121.479 136.196 121.643 135.866 121.901 135.64C122.239 135.344 122.709 135.04 123.082 134.817C123.759 134.412 124.218 133.663 124.812 133.04C125.578 132.238 126.337 131.451 127.006 130.478C128.238 128.684 129.433 126.921 130.503 124.898C132.931 120.309 135.051 115.347 136.92 110.247C138.957 104.694 139.767 98.8521 140.142 92.643C140.328 89.5616 140.484 86.4686 140.628 83.3824C140.695 81.9441 140.752 80.4956 140.709 79.054C140.691 78.4411 140.555 77.6159 140.705 77.0155C140.848 76.4432 141.272 76.0091 141.541 75.5606C142.562 73.8574 144.182 70.8479 143.953 68.4553Z" fill="black"/>
<path fill-rule="evenodd" clip-rule="evenodd" d="M63.7328 92.0955C63.2168 91.6768 63.9309 90.4993 63.3565 90.2009C62.8364 89.9308 62.5319 91.2219 62.4773 91.7301C62.3632 92.7924 62.6433 93.7657 63.2876 94.2828C63.6264 94.5546 64.0211 94.7004 64.3331 95.0453C64.6708 95.4192 64.8374 95.9359 65.1996 96.2784C65.8314 94.398 64.7689 92.9363 63.7328 92.0955Z" fill="black"/>
<path fill-rule="evenodd" clip-rule="evenodd" d="M67.4633 88.4879C66.4922 88.817 66.3233 92.6677 67.3778 92.6028C67.9997 92.5646 67.8252 90.7625 67.9226 90.1482C68.0175 89.5485 68.2092 88.2352 67.4633 88.4879Z" fill="black"/>
<path fill-rule="evenodd" clip-rule="evenodd" d="M66.9052 20.9379C68.1592 22.1349 70.1935 19.0629 69.5501 17.2271C69.0402 17.6661 68.2959 18.9657 67.6666 18.8725C66.6853 18.7275 67.693 17.3573 67.5581 16.6998C67.3035 15.4569 66.5914 17.5463 66.51 17.9365C66.321 18.8442 66.2656 20.3274 66.9052 20.9379Z" fill="black"/>
<path fill-rule="evenodd" clip-rule="evenodd" d="M70.0763 57.3564C70.0559 56.6494 69.9172 55.9209 69.5535 55.4187C69.19 54.9164 68.7645 54.7971 68.4901 54.1639C68.3164 53.7629 68.3123 53.3625 67.9483 53.7777C67.716 54.0426 67.6453 54.79 67.6493 55.1833C67.655 55.7747 67.8196 56.3326 68.088 56.7761C68.4005 57.2928 68.8423 57.3692 69.1756 57.782C69.3781 58.033 69.4252 58.657 69.7544 58.4459C69.963 58.3121 70.0156 57.6261 70.0763 57.3564Z" fill="black"/>
</svg>
