<svg width="156" height="168" viewBox="0 0 156 168" fill="none" xmlns="http://www.w3.org/2000/svg">
<g clip-path="url(#clip0_13_1083)">
<path d="M155.5 0.737549H0.5V167.738H155.5V0.737549Z" fill="white" fill-opacity="0.01"/>
<path fill-rule="evenodd" clip-rule="evenodd" d="M94.6225 109.079C94.3793 114.205 89.5375 116.87 86.6008 117.964C87.1895 112.935 87.9497 107.722 87.4766 102.623C87.321 100.943 87.1167 99.2719 86.8972 97.6072C86.8161 96.9916 86.7324 96.3766 86.6456 95.7625C86.6246 95.6132 86.4543 94.9597 86.5085 94.8108C86.6055 94.5444 87.427 94.5861 87.6363 94.5979C88.1757 94.6275 88.705 94.8234 89.1984 95.133C90.2358 95.7836 91.1096 96.9037 91.8295 98.1401C93.5275 101.055 94.8061 105.214 94.6225 109.079ZM89.017 74.235C86.2062 76.626 82.8204 77.9092 79.6145 78.5346C74.7306 79.4874 69.744 78.3906 64.9692 76.8707C63.7969 76.4975 62.627 76.0953 61.4719 75.6232C61.4198 80.4842 62.3718 85.1069 64.231 89.1608C65.7682 92.5126 67.7742 95.3137 69.5277 98.4185C71.16 101.309 72.4766 104.569 72.542 108.383C72.5692 109.975 72.4781 111.432 71.5502 112.464C70.6178 113.5 69.3584 113.885 68.2174 114.121C65.3605 114.712 62.3683 114.393 59.5293 113.742C58.978 113.615 58.4278 113.471 57.8838 113.291C57.266 113.087 57.0496 112.846 56.5337 113.512C55.4204 114.95 54.9097 117.105 54.6575 119.168C54.1849 123.03 54.3452 127.536 55.0264 131.346C55.6827 135.017 58.78 137.052 61.0746 137.939C67.9957 140.614 75.6317 136.919 80.9424 130.341C81.0581 130.197 81.173 130.052 81.2851 129.903C81.6623 131.031 82.0742 132.139 82.5244 133.211C82.8375 133.957 83.1672 134.706 83.5621 135.37C83.7047 135.609 83.8721 135.933 84.0671 136.09C84.4301 136.382 84.7991 136.167 85.2099 136.065C88.241 135.308 91.2651 134.314 94.1472 132.748C98.5289 130.368 102.459 126.446 104.535 120.251C105.585 117.121 106.131 113.693 106.396 110.254C106.7 106.306 106.766 102.27 105.992 98.4224C104.575 91.3705 100.959 85.6538 96.9998 81.2446C94.5497 78.5161 91.8562 76.0507 89.017 74.235Z" fill="#FF5678"/>
<path fill-rule="evenodd" clip-rule="evenodd" d="M138.544 27.5384C137.903 27.9042 137.213 28.0059 136.532 28.0775C135.997 28.1336 135.578 28.4415 135.074 28.4589C133.672 28.5069 132.263 28.5974 130.867 28.8986C129.465 29.201 128.174 28.8059 127.067 30.3192C126.673 30.8576 126.179 31.4766 126.416 32.3458C126.525 32.7437 126.678 33.0292 126.768 33.4565C126.87 33.9394 126.997 34.3957 127.144 34.8556C127.427 35.7375 128.844 39.0223 127.694 39.4241C126.448 39.8597 124.757 39.3506 123.556 38.8522C122.855 38.5615 122.165 38.2208 121.475 37.885C120.928 37.6193 120.21 37.4686 119.706 37.0524C119.372 36.7761 119.303 36.3046 119.082 35.8567C118.68 35.0419 118.305 34.348 117.786 33.67C116.709 32.2638 115.362 31.309 114.035 30.4699C113.949 30.4153 113.793 30.2885 113.7 30.2759C113.6 30.2626 113.49 30.4105 113.426 30.3924C113.249 30.3431 113.187 30.183 112.993 30.025C112.733 29.8127 111.671 29.1062 111.486 29.6616C111.66 28.9321 111.786 29.1425 112.256 29.2484C112.463 29.2954 112.602 29.1591 112.788 29.1728C112.959 29.1852 113.03 29.3254 113.173 29.3633C113.435 29.4324 113.68 29.3802 113.953 29.3774C114.027 29.1441 114.131 29.1458 114.267 29.3824C114.342 29.4176 114.418 29.4526 114.493 29.4881C114.766 29.5955 115.057 29.5748 115.336 29.6064C115.756 29.6542 116.849 30.3887 117.059 29.6453C117.283 28.8514 116.602 28.6535 116.488 28.0995C116.377 27.5558 116.897 27.2368 117.105 26.9087C117.342 26.5353 117.487 26.2077 117.766 25.8789C117.929 25.6858 118.143 25.5059 118.264 25.2487C118.375 25.0121 118.37 24.6296 118.514 24.4326C118.687 24.1976 118.713 24.3602 118.87 24.2467C119.176 24.0236 119.041 24.0349 119.222 23.7301C119.378 23.4695 119.492 23.4774 119.695 23.2778C119.993 22.9853 120.097 22.4139 120.386 22.0997C120.597 21.8696 120.934 21.87 121.119 21.631C121.229 21.4903 121.195 21.2622 121.289 21.1293C121.471 20.874 121.595 20.9777 121.821 20.8935C122.203 20.7515 122.326 20.4485 122.607 20.0976C122.864 19.7772 123.027 19.7786 123.348 19.6457C123.787 19.4643 124.071 18.9892 124.467 18.71C124.84 18.4474 125.225 18.2633 125.602 17.9835C125.874 17.7814 126.137 17.656 126.385 17.4498C126.469 17.3802 126.477 17.1253 126.585 17.0908C126.71 17.051 126.809 17.3481 126.941 17.3637C127.219 17.3964 127.534 16.9544 127.717 16.6985C127.796 16.5873 127.903 16.2866 128.005 16.2245C128.218 16.0944 128.345 16.3521 128.535 16.2503C128.802 16.1076 128.696 15.6896 128.859 15.4592C129.002 15.2581 129.305 15.2717 129.559 15.3353C130.58 15.5913 128.99 16.6283 128.691 16.8381C128.188 17.1913 124.528 19.7614 125.385 21.0431C125.838 21.7211 126.944 21.2113 127.436 21.0327C128.299 20.7194 129.199 20.1163 130.085 19.9779C130.194 19.9608 130.521 20.0733 130.61 20.0242C130.811 19.9136 130.761 19.6924 130.924 19.5761C131.171 19.4014 131.674 19.4099 131.924 19.4492C132.119 19.4799 132.333 19.6475 132.532 19.6248C132.751 19.5998 132.962 19.4168 133.179 19.3579C133.551 19.2573 133.935 19.3066 134.311 19.3222C134.85 19.3448 135.929 19.462 135.145 20.4919C134.51 21.3254 133.413 21.6862 132.612 22.05C131.428 22.5876 130.265 23.0768 129.096 23.6894C128.299 24.1065 126.601 24.8393 127.549 26.4031C127.642 26.2761 127.736 26.1494 127.829 26.0224C127.94 26.1831 128.054 26.4958 128.231 26.5049C128.379 26.5123 128.325 26.2848 128.464 26.2137C128.902 25.9904 129.502 26.0074 129.964 25.9654C131.121 25.8602 132.274 25.6399 133.432 25.5716C134.523 25.5075 135.626 25.591 136.695 25.9198C136.971 26.0043 139.536 26.9722 138.544 27.5384ZM129.083 43.6189C129.141 44.3169 128.926 44.8816 128.866 45.556C128.793 46.3712 128.847 47.0892 128.686 47.8996C128.373 49.475 128.151 51.0867 127.815 52.653C127.222 55.4185 126.266 57.8609 125.282 60.37C124.78 61.6493 124.024 62.7056 123.333 63.7757C122.626 64.8723 122.06 65.9517 121.214 66.8521C119.523 68.6517 117.698 70.2524 115.697 71.2246C113.601 72.2425 111.398 72.5508 109.197 72.4214C108.22 72.364 107.185 72.506 106.224 72.2792C105.202 72.0376 104.094 71.7412 103.09 71.3846C101.246 70.7308 99.4693 69.6207 97.6685 68.6291C95.6574 67.5217 93.8468 66.108 92.013 64.5111C91.5277 64.0886 91.0149 63.8914 90.56 63.3799C90.1763 62.9492 89.7989 62.5371 89.3955 62.1435C88.9325 61.6921 88.4893 61.1985 88.0163 60.7695C87.7337 60.5129 87.336 60.262 87.1877 59.7977C86.9835 59.1591 87.2296 58.3571 87.3568 57.7376C87.5224 56.9313 87.6986 56.135 87.8976 55.3446C88.2347 54.0062 89.0925 51.942 88.6207 50.527C87.6261 51.4123 87.1874 53.1525 86.7622 54.6318C86.2544 56.3992 85.8999 58.1623 85.8233 60.0791C85.6695 63.9349 86.1186 67.9933 87.0923 71.5886C87.237 72.1224 87.4912 72.7015 87.3044 73.2727C87.1084 73.872 86.5765 74.3782 86.1676 74.6374C84.8742 75.457 83.5756 75.6958 82.2248 76.1491C81.857 76.2724 81.4544 76.6432 81.1093 76.6899C80.8763 76.7215 80.6838 76.6116 80.4169 76.6143C80.149 76.6169 79.9393 76.8324 79.6996 76.8554C79.4902 76.8758 79.3045 76.6999 79.1048 76.7165C78.6583 76.7539 78.576 77.8535 78.3545 76.8854C78.3144 76.9252 78.0926 77.2862 78.0648 77.2864C78.0017 77.2866 77.8904 77.0174 77.8302 76.9696C77.7127 76.8761 77.558 76.8706 77.4268 76.8463C77.1372 76.7921 76.8248 76.7867 76.5396 76.8821C76.0107 77.0592 75.479 76.9846 75.0267 76.9717C74.9239 76.9689 74.851 77.0879 74.7231 77.0809C74.6648 77.0774 74.5809 76.9293 74.519 76.9065C74.1615 76.7741 73.7903 76.873 73.4263 76.8441C72.5706 76.7763 71.7445 76.7434 70.9091 76.4718C69.1968 75.9149 67.4511 75.8034 65.732 75.2941C64.8562 75.0345 64.0007 74.8929 63.1383 74.5509C62.8353 74.4306 62.5247 74.3739 62.2562 74.2099C61.9997 74.0532 62.1006 73.8444 61.7026 74.2636C61.5238 73.6341 61.5027 73.6983 61.0711 73.4902C60.9042 73.4095 60.5206 73.2095 60.3963 73.0509C60.3839 73.0351 60.1182 72.0768 60.0954 71.9589C59.9847 71.3866 60.0769 70.7323 60.1231 70.1563C60.2274 68.8577 60.3781 67.5693 60.3871 66.2603C60.391 65.6829 60.4635 65.6662 60.5885 65.2311C60.6271 65.0963 60.7408 65.1069 60.7502 64.9016C60.7631 64.6279 60.5681 64.4374 60.5892 64.1177C60.6172 63.6876 60.9178 63.2519 61.0233 62.8511C61.1501 62.3686 61.1485 61.8582 61.2241 61.3588C61.3254 60.6942 61.521 60.0706 61.6195 59.4033C61.7034 58.8381 61.7114 58.3886 61.9209 57.9037C62.1305 57.4197 62.0688 57.0246 62.2357 56.5425C62.3889 56.1004 62.5827 55.9417 62.6876 55.4079C62.9416 54.1164 63.3275 52.8378 63.8743 51.743C64.3552 54.4883 64.8668 57.3247 66.2058 59.4946C66.7574 60.3881 67.4694 61.2896 68.301 61.5619C69.2413 61.8695 69.9933 61.0728 70.6056 60.1291C72.0644 57.88 72.6687 55.3696 72.7568 52.3201C72.7788 51.5621 72.7756 50.803 72.7685 50.0445C72.7651 49.707 72.6446 48.8407 72.8057 48.557C72.9822 48.2458 73.4859 48.4402 73.7481 48.2351C74.0704 47.9825 74.4246 47.3068 74.2808 46.7497C75.1399 47.3086 75.9614 48.0442 76.9168 48.1999C77.2951 48.2617 77.6979 48.1677 78.0362 48.1418C78.0261 48.1425 78.2981 48.2223 78.3144 48.2275C78.3815 48.1164 78.4541 48.0894 78.5322 48.1464C78.6017 48.1571 78.6523 48.2106 78.684 48.3073C80.0459 48.5028 81.4171 47.536 82.5828 46.5121C83.2638 45.9137 84.0119 45.028 84.203 43.8631C84.2713 43.4476 84.2123 43.056 84.5114 42.8439C84.7543 42.6713 85.2236 42.9203 85.48 42.9472C86.382 43.0423 87.2708 42.9192 88.1515 43.3054C88.6888 43.5411 89.627 45.1926 90.0018 44.0308C90.1643 44.25 90.0761 44.6403 90.2491 44.8536C90.4 45.0395 90.9072 45.1704 91.1158 45.3296C91.439 45.5757 91.6285 45.9034 91.9114 46.1994C92.259 46.5632 92.6227 46.5912 92.9592 47.0181C94.1246 48.4963 95.4896 49.567 96.7907 50.793C98.3345 52.2473 99.7008 53.9616 101.357 55.1478C103.052 56.3607 104.691 57.374 106.542 58.0051C107.382 58.2914 108.243 58.5304 109.106 58.6187C109.512 58.66 109.9 58.6391 110.292 58.8144C110.53 58.921 110.608 58.9742 110.842 58.984C110.978 58.9897 111.175 58.8766 111.343 58.8809C111.688 58.8899 111.864 58.8694 112.176 59.0334C112.528 59.2189 112.821 59.3304 113.222 59.3463C113.683 59.365 113.955 59.1104 114.374 58.9534C114.712 58.8268 115.016 58.8872 115.319 58.6244C116.663 57.4567 117.742 55.6734 118.447 53.6489C119.256 51.3255 119.879 48.493 120.006 45.8893C120.079 44.3989 119.85 42.9455 119.454 41.5771C119.342 41.1911 118.671 39.547 118.878 39.2484C119.112 38.909 119.879 39.6868 120.096 39.8558C120.782 40.3916 122.021 40.5631 122.502 41.4645C122.625 41.1268 123.306 41.6273 123.524 41.7682C123.705 41.8848 123.756 42.0955 123.984 42.1207C124.198 42.1444 124.419 41.8989 124.616 41.8206C124.472 42.3975 124.956 42.4245 125.288 42.4551C125.527 42.4771 125.783 42.4232 125.996 42.4014C126.403 42.3599 126.41 42.2286 126.781 41.9289C126.767 42.1483 126.784 42.3627 126.831 42.5719C127.07 42.075 127.526 42.4201 127.849 42.2018C127.615 41.6932 128.611 41.5538 128.843 41.6608C129.427 41.9302 129.031 43.0005 129.083 43.6189ZM83.3534 78.5772C83.7388 78.4121 84.1266 78.2612 84.513 78.1036C84.2203 78.4895 83.9162 79.186 83.4981 79.2947C82.9938 79.4254 82.7952 78.8161 83.3534 78.5772ZM64.3288 78.8538C64.9776 78.9653 65.684 78.8798 66.2527 79.4302C65.9756 79.8882 65.7956 80.3676 65.3333 80.1049C64.9449 79.8845 64.6252 79.2554 64.3288 78.8538ZM86.0031 103.932C85.5772 103.383 85.6333 103.137 85.8333 102.427C85.9194 102.121 86.0556 101.171 86.3788 101.45C86.4935 101.548 86.6325 102.583 86.6531 102.793C86.6988 103.262 86.4969 104.568 86.0031 103.932ZM88.4058 100.744C88.2553 99.9499 88.2604 99.0849 88.1125 98.271C87.9565 97.4114 87.7644 96.549 87.7092 95.6607C89.9601 96.232 91.2384 99.4411 92.2134 102.119C92.7314 103.542 93.2394 105.116 93.4348 106.707C93.6253 108.257 93.2946 109.434 92.9103 110.816C92.7144 111.521 92.3906 111.766 92.0127 112.232C91.6777 112.645 91.5522 113.341 91.2032 113.712C90.9454 113.986 90.6103 114.129 90.3407 114.405C90.0743 114.679 89.8079 114.95 89.533 115.205C89.2186 115.497 88.2768 116.561 87.8525 116.334C87.5348 116.164 87.6763 115.605 87.7564 115.255C87.9249 114.517 88.0432 113.807 88.1472 113.037C88.425 110.984 88.5754 108.944 88.6475 106.856C88.7177 104.818 88.7833 102.735 88.4058 100.744ZM86.5232 110.003C86.557 110.104 86.6976 110.966 86.3838 110.789C86.1658 110.666 86.4913 110.162 86.5232 110.003ZM87.8493 75.7875C88.115 75.6299 88.2212 76.0963 88.4549 76.1102C88.7649 76.1287 88.83 75.6334 89.1553 75.6188C89.9508 75.5829 91.1033 76.6871 91.7501 77.2633C91.4334 77.8385 91.3028 78.4269 91.4602 79.1349C91.599 79.7588 92.1289 80.4563 92.1096 81.1174C92.0896 81.7802 91.516 82.207 91.3373 82.7967C91.1729 83.3384 91.1102 84.4217 91.6176 84.6605C92.4904 85.0712 92.69 82.7228 93.3514 82.7045C93.6341 82.6969 94.0016 83.4606 94.2049 83.6985C94.6604 84.231 95.174 84.62 95.7036 84.9736C96.0611 85.2122 96.5588 85.6825 96.8239 85.041C97.0364 84.5274 96.8628 83.7133 96.6563 83.2712C96.4194 82.7641 94.2968 80.4431 94.4308 80.2387C94.5022 80.1295 95.0308 80.4303 95.1057 80.5216C95.2749 80.7273 95.3372 81.0624 95.5067 81.2816C95.7657 81.6162 96.1002 81.7486 96.4203 81.9035C97.0885 82.2259 97.5114 83.3606 98.1589 83.889C98.5325 84.1936 98.7605 84.7788 99.0765 85.2319C99.4902 85.8251 99.9118 86.4468 99.8496 87.3203C99.8063 87.9257 99.7438 89.3356 99.5055 89.8464C99.2468 90.4007 98.8165 90.1882 98.4234 90.3191C97.9812 90.4663 97.6275 90.9619 97.7156 91.6699C97.807 92.406 98.2168 92.4586 98.6448 92.4771C99.8521 92.5295 99.4076 93.6309 99.8285 94.8405C100.057 95.4974 100.439 95.7553 100.701 94.9864C100.913 94.3678 100.535 93.3925 100.765 92.8644C101.044 92.2205 102.54 92.3958 102.852 92.8957C103.088 93.2749 103.213 93.7963 103.449 94.193C103.807 94.7951 103.954 95.6392 104.169 96.3774C104.397 97.1613 104.596 97.9566 104.77 98.7687C104.893 99.3391 105.158 100.243 104.524 99.7553C104.081 99.4152 103.75 98.6476 103.189 98.6232C102.633 98.5993 102.317 99.4278 102.479 100.148C102.636 100.845 103.352 101.152 103.435 101.859C103.526 102.633 102.604 103.421 102.324 103.99C101.679 105.299 102.218 106.773 103.275 105.662C103.649 105.268 104.042 104.473 104.464 104.224C105.132 103.83 105.128 105.29 105.449 105.827C105.621 106.116 105.683 105.822 105.581 106.254C105.544 106.413 105.353 106.463 105.331 106.661C105.316 106.806 105.406 106.883 105.409 106.995C105.42 107.375 105.42 107.431 105.361 107.845C105.295 108.303 105.319 108.873 105.299 109.339C105.254 110.404 105.244 111.421 105.166 112.485C105.123 113.078 105.032 114.284 105.519 114.573C105.346 114.963 105.115 116.048 104.774 115.967C104.802 116.224 104.787 116.552 104.96 116.72C105.002 116.563 105.043 116.407 105.085 116.25C105.18 116.608 105.096 116.649 105.09 116.893C105.098 116.591 104.899 117.314 105.006 117.224C104.915 117.334 104.794 117.397 104.657 117.539C104.465 117.737 104.364 118.011 104.215 118.28C103.945 118.765 103.961 119.254 103.725 119.76C103.39 120.478 102.961 121.186 102.608 121.903C102.321 122.486 101.774 122.823 101.544 123.45C101.397 123.849 101.339 124.313 101.089 124.594C100.732 124.996 100.254 125.374 99.8653 125.789C99.621 126.05 99.4353 126.412 99.1916 126.665C99.068 126.793 98.6964 126.923 98.696 127.185C98.2284 126.997 97.8972 126.31 97.5296 125.893C97.2839 125.614 96.6987 125.251 96.734 124.692C96.763 124.234 97.2159 123.666 97.3202 123.186C97.4088 122.78 97.5318 122.022 97.2872 121.674C96.7738 120.946 96.1916 122.509 95.916 122.925C95.3475 123.784 95.1057 122.918 94.6383 122.295C93.8916 121.299 93.4222 122.332 93.685 123.572C93.8182 124.2 94.3251 124.759 94.358 125.4C94.3941 126.105 93.8628 126.459 93.6526 127.022C93.4541 127.552 93.3624 128.485 93.7355 128.924C94.1471 129.408 94.5049 128.835 94.7741 128.388C94.9831 128.041 95.2155 127.276 95.555 127.233C95.9803 127.179 96.6778 128.289 97.0014 128.631C96.5098 128.835 96.2139 129.427 95.7982 129.806C95.2619 130.295 94.5131 130.41 93.9129 130.746C93.3474 131.062 92.8387 131.32 92.3003 131.712C91.6614 132.177 90.8798 132.294 90.2032 132.632C89.5993 132.935 89.0262 133.359 88.4092 133.609C87.7139 133.891 86.9921 134.06 86.291 134.315C85.6914 134.532 84.9882 134.742 84.3703 134.743C83.7453 134.745 83.7583 134.189 83.5585 133.448C83.321 132.568 82.9278 131.796 82.677 130.937C82.4383 130.121 82.7987 129.811 83.1444 129.186C83.47 128.597 83.3838 128.505 83.8037 128.919C84.3565 129.463 84.7216 129.094 85.1517 128.469C85.5343 127.913 85.6748 127.45 86.2253 127.838C86.7763 128.225 87.3011 128.856 87.8929 129.109C88.3593 129.308 88.7067 129.163 88.7848 128.43C88.8691 127.638 88.5548 127.077 88.1587 126.606C87.8572 126.249 87.1986 125.824 87.0884 125.244C86.9723 124.632 87.5838 123.74 87.6492 123.057C87.7316 122.194 87.4729 121.559 86.9028 122.157C86.4893 122.59 86.2141 123.53 85.64 123.588C85.7994 122.627 86.1452 121.773 86.4419 120.893C86.6906 120.156 86.9039 119.319 87.5714 119.237C87.7879 119.21 87.9286 119.243 88.1351 119.189C88.4077 119.119 88.7777 119.062 89.0692 118.957C89.7549 118.708 90.3605 117.947 90.9919 117.511C91.1367 118.071 91.3928 119.665 91.9824 118.734C92.4185 118.046 91.9355 116.861 92.3372 116.095C93.1659 114.515 94.9708 115.675 96.0596 114.861C96.5336 114.506 96.9194 113.375 96.2511 113.034C95.8606 112.834 94.733 113.57 94.4981 113.028C94.3306 112.641 95.0324 111.13 95.1172 110.715C95.3812 109.422 95.3384 108.08 95.3384 106.749C95.8681 107.06 96.5386 107.789 97.1095 107.889C97.6965 107.992 97.7997 107.001 97.646 106.351C97.4339 105.455 96.7275 104.72 96.2432 104.143C96.0297 103.889 95.4708 103.479 95.3538 103.092C95.233 102.693 95.406 102.499 95.5416 102.152C95.7536 101.61 96.267 100.208 95.7083 99.6994C95.1944 99.2317 94.9061 100.542 94.5787 100.823C94.0231 101.299 93.8327 100.209 93.6119 99.6539C93.2109 98.6469 92.6552 97.7482 92.1565 96.8421C91.7024 96.0173 91.4226 95.4592 91.3563 94.4082C91.3061 93.6122 91.1929 92.9959 91.8462 92.815C93.0044 92.4945 94.7002 93.2845 95.6411 91.9304C96.1346 91.2204 95.782 90.4863 95.159 90.5229C94.3405 90.5709 93.5624 90.629 92.7386 90.5335C92.3007 90.4829 91.3853 90.6357 91.1641 89.9873C90.8795 89.1523 91.3621 87.8109 90.8381 87.0791C90.1692 86.1448 90.0052 88.2564 89.9832 88.8394C89.9668 89.2643 90.0426 89.911 89.8587 90.2785C89.6869 90.6212 89.3731 90.6162 89.1193 90.7401C88.4799 91.0524 88.1496 92.1811 88.9979 92.4199C89.2832 92.5003 89.6812 92.3834 89.9182 92.6874C90.1666 93.0055 90.0717 93.5708 90.095 93.9996C89.5009 93.01 88.2656 93.4486 87.4609 93.0812C87.0371 92.8876 86.9655 92.6297 86.7872 92.04C86.5715 91.3263 86.0797 90.4239 86.0608 89.6348C86.0449 88.9649 86.4333 88.4606 86.6145 87.8831C86.7701 87.3875 86.9108 86.581 86.8878 86.025C86.8323 84.6837 85.1482 86.0528 84.8012 86.566C84.1717 87.4973 83.3955 88.702 83.7368 90.0212C84.0412 91.1983 84.2027 91.8658 83.1465 91.7732C82.7599 91.7393 81.948 91.8493 81.648 91.6147C81.4253 91.4407 81.509 91.1285 81.5016 90.6762C81.4954 90.2843 81.516 89.6905 81.341 89.348C80.7249 88.1438 80.5808 91.1406 80.2348 91.4653C79.6944 91.973 78.5502 91.4409 78.6385 92.9476C78.7158 94.266 79.956 93.7276 80.2991 94.8618C80.4643 95.4083 80.4292 96.0443 80.6373 96.5716C80.9338 97.3231 81.2988 97.2831 81.4954 96.4996C81.6334 95.9493 81.4494 95.3837 81.5556 94.8644C81.709 94.1136 82.4392 94.1832 82.8884 94.0984C83.4344 93.9951 83.9103 93.7976 84.4296 93.5563C85.0704 93.2584 85.0356 93.7474 85.1399 94.4554C85.2609 95.2769 85.4459 96.0689 85.5594 96.9026C85.6651 97.6795 85.9456 98.5163 85.9913 99.2939C86.0261 99.8884 85.8859 99.834 85.5434 100.177C85.1688 100.552 84.7566 101.527 84.322 101.687C83.6683 101.928 83.0094 99.7807 82.4146 100.879C82.1591 101.351 82.258 102.356 82.4396 102.843C82.6795 103.487 83.1206 103.65 82.751 104.388C82.4731 104.942 82.1239 105.371 82.0978 106.117C82.0735 106.809 82.401 107.464 82.9132 107.26C83.3271 107.097 83.5717 106.487 83.885 106.118C84.426 105.48 84.8701 106.071 85.4238 106.432C85.8596 106.716 86.6606 106.902 86.8792 107.571C87.1568 108.419 86.801 108.748 86.2853 108.506C86.4863 109.455 86.2218 110.006 86.1493 110.987C86.0906 111.781 85.9636 112.507 85.8826 113.275C85.7751 114.3 85.7638 114.189 85.0297 114.223C84.406 114.253 83.7997 114.229 83.1768 114.19C82.6281 114.155 82.2548 114.226 82.2301 113.275C82.2192 112.855 82.4034 111.431 81.8275 111.602C81.3203 111.753 81.4663 113.054 81.2966 113.542C81.0513 114.25 80.6361 114.034 80.1743 114.208C79.7044 114.386 79.3246 114.884 79.4457 115.655C79.5753 116.477 80.0998 116.42 80.5557 116.61C81.2577 116.903 81.1038 118.386 81.5135 119.193C81.6808 119.521 81.8568 119.854 82.1376 119.584C82.6524 119.089 82.1664 117.879 82.3025 117.272C82.4455 116.634 82.9279 116.765 83.3838 116.682C84.057 116.56 84.7614 116.093 85.432 116.099C85.3035 116.655 84.9432 116.978 84.8135 117.564C84.744 117.877 84.809 118.463 84.7124 118.723C84.6087 119.002 84.2816 119.085 84.1463 119.473C83.9692 119.981 83.9145 120.524 83.7073 121.022C83.2175 122.198 82.7956 123.4 82.2749 124.564C81.7373 125.766 81.1578 126.91 80.4815 127.952C79.8253 128.963 79.6296 128.473 79.0658 127.647C78.8363 127.31 78.3488 126.921 78.285 126.419C78.2219 125.923 78.5071 125.519 78.6632 125.116C78.8702 124.582 79.2438 123.662 79.1528 123.021C78.9819 121.817 78.2327 122.925 77.9486 123.376C77.4524 124.164 77.1751 124.992 76.4252 124.37C75.9452 123.971 75.3399 122.881 74.7099 123.284C74.1364 123.651 74.297 124.712 74.6498 125.25C74.8475 125.551 75.129 125.724 75.3387 126.006C75.7901 126.614 75.5345 126.779 75.3285 127.459C75.1599 128.017 75.1355 129.113 75.4463 129.577C76.058 130.49 76.5308 128.648 77.0985 128.61C77.3676 128.593 78.486 129.647 78.5658 130.027C78.7057 130.693 77.499 131.488 77.1784 131.801C76.4326 132.528 75.6202 133.269 74.7813 133.752C73.7914 134.321 74.5292 132.528 73.988 131.932C73.2842 131.157 73.2297 133.28 73.1575 133.807C72.9655 135.21 71.934 135.247 71.1018 135.595C70.572 135.816 70.0417 136.052 69.5065 136.244C69.0522 136.408 68.5437 136.404 68.1033 136.606C67.7172 136.784 67.4529 137.144 67.021 137.148C66.8806 137.15 66.7586 137.082 66.6231 137.077C66.35 137.067 66.0997 137.292 65.8386 137.269C65.4044 137.23 65.5934 137.033 65.4421 136.598C65.3003 136.189 64.9394 136.039 64.6587 135.912C63.8535 135.546 63.1833 135.866 63.0664 134.396C63.0304 133.944 63.0779 132.09 62.4799 132.307C61.7815 132.559 62.396 134.763 61.9625 135.316C61.7515 135.584 61.433 135.45 61.1787 135.53C60.7613 135.66 60.5783 136.113 60.1213 136.083C59.7357 136.057 59.3769 135.811 59.0408 135.567C58.5399 135.203 57.9423 134.962 57.5247 134.406C56.9523 133.644 56.7011 132.458 56.4571 131.428C56.0981 129.911 55.9451 128.4 55.8874 126.809C55.8673 126.255 55.7033 125.864 55.6348 125.355C55.5619 124.814 55.7772 124.705 55.8267 124.193C55.8748 123.695 55.8515 123.162 55.9245 122.628C56.0294 121.86 56.066 121.075 56.1677 120.305C56.336 119.031 56.5912 117.766 56.8007 116.504C56.8658 116.112 56.9837 114.855 57.3205 114.734C57.5691 114.645 58.1429 115.177 58.3731 115.333C58.8286 115.642 59.22 116.068 59.7073 116.282C59.9587 116.392 60.2761 116.381 60.4411 116.716C60.7019 117.247 60.4911 118.286 60.5991 118.914C60.7314 119.681 61.1695 120.008 61.5225 119.237C61.7106 118.826 61.6605 118.335 61.6858 117.881C61.7218 117.225 61.7299 117.067 62.2235 117.111C62.7234 117.156 63.2116 117.427 63.7243 117.46C64.1865 117.49 64.6511 117.472 65.1129 117.435C66.2344 117.347 67.2601 117.085 68.3118 116.511C69.0242 116.123 69.8504 115.273 70.6355 115.303C71.7439 115.345 71.4438 116.82 71.5955 117.922C71.688 118.593 72.4692 120.654 72.7694 118.982C72.9177 118.154 72.4232 116.949 72.7162 116.202C73.0623 115.319 74.3342 116.051 74.9129 115.847C75.3812 115.682 76.1639 114.728 75.8332 113.905C75.6765 113.515 75.3723 113.589 75.101 113.56C74.5868 113.504 74.0761 113.403 73.5662 113.296C73.2761 113.234 72.8328 113.198 72.7168 112.72C72.6185 112.314 73.08 111.26 73.1802 110.872C73.5114 109.585 73.6308 108.539 73.6322 107.136C73.6325 106.504 73.6612 105.836 73.5905 105.211C73.5645 104.982 73.3252 104.234 73.4372 104.015C73.588 103.72 73.8965 104.094 74.0203 104.315C74.2662 104.755 74.1807 104.719 74.0409 105.175C73.835 105.846 73.4349 107.252 74.1135 107.768C74.8231 108.307 75.0795 106.483 75.7519 106.683C76.0654 106.777 76.3748 107.369 76.6274 107.645C76.9232 107.969 77.2424 108.313 77.59 108.512C78.1602 108.838 78.8009 108.593 78.5705 107.563C78.3889 106.751 77.8141 106.071 77.4032 105.495C76.7485 104.578 76.7782 104.192 77.2305 103.112C77.4198 102.659 78.1467 100.739 77.3042 100.583C76.8583 100.5 76.376 101.539 76.1405 101.936C75.7362 102.618 75.5044 102.911 74.9029 102.363C74.315 101.828 74.0421 101.38 73.3309 101.331C72.5128 101.274 72.1447 99.5083 71.711 98.6013C70.5326 96.1376 68.7286 94.919 67.2075 93.0314C66.4663 92.1113 65.9657 90.9078 65.402 89.7753C65.1337 89.2358 64.787 88.7879 64.5683 88.2001C64.4307 87.8304 64.0579 86.9396 64.1549 86.5034C64.2757 85.9604 64.9276 85.6253 65.1987 85.2417C65.4264 84.9201 65.5479 84.5189 65.9059 84.6418C66.2246 84.7514 66.5117 85.3709 66.7722 85.6431C67.0279 85.9104 67.3164 86.1583 67.5999 86.3581C68.1127 86.7195 68.7318 86.9126 68.7619 85.8136C68.7881 84.8627 68.1845 83.8444 67.7484 83.2029C67.431 82.7361 66.9502 82.3303 67.0132 81.589C67.0442 81.2213 67.2616 80.5668 67.3884 80.2585C67.8257 79.1971 69.1608 79.8447 69.8863 79.9127C70.7604 79.9949 71.7242 79.784 72.419 80.6725C72.6455 80.9623 73.1708 81.5316 73.282 81.935C73.4115 82.4045 73.2 82.6156 73.0825 83.0701C72.9306 83.6572 72.8261 84.8168 73.2634 85.2217C73.9933 85.8973 74.3739 83.8931 75.1327 84.3315C75.8521 84.7472 76.3551 85.9426 77.1764 86.1317C78.2513 86.3792 77.6392 84.4652 77.2672 83.902C76.7848 83.1718 75.8494 82.4168 76.1556 81.3372C76.2431 81.0287 76.4431 80.385 76.6229 80.1935C76.975 79.8184 77.5424 80.0243 77.9455 80.0304C78.9629 80.046 79.9233 79.9258 80.9203 79.6703C81.221 79.5931 81.2892 79.532 81.5011 79.8538C81.7945 80.2987 81.9484 80.8788 82.2896 81.3164C81.7968 82.0794 81.0663 82.9803 81.409 84.1549C81.7037 85.1656 82.35 84.6698 82.7873 84.1299C82.9927 83.8764 83.2048 83.3397 83.4769 83.2379C83.8302 83.1057 84.2273 83.5669 84.5165 83.8009C84.9506 84.1525 85.879 85.1945 86.3721 84.5794C87.0242 83.7657 86.2526 82.5415 85.8033 82.0389C85.5316 81.7349 85.1697 81.5181 84.941 81.143C84.6367 80.6438 84.8152 80.5705 84.9995 80.1206C85.3369 79.2973 85.2133 78.2371 85.753 77.5941C86.0523 77.2375 86.4802 77.0133 86.822 76.7519C87.1583 76.4942 87.5193 75.9834 87.8493 75.7875ZM93.3488 78.989C93.2176 78.8735 93.0862 78.7581 92.9551 78.6424C93.2551 78.4323 93.4531 78.4573 93.3488 78.989ZM100.591 88.9918C100.644 88.6076 100.85 87.9202 101.134 88.2797C101.317 88.5106 101.117 89.378 101.552 89.1382C101.574 89.6907 101.288 89.6437 101.71 90.1354C101.177 90.0467 100.441 90.0812 100.591 88.9918ZM79.8972 135.572C80.0315 135.054 80.0304 134.252 80.4437 134.725C80.4653 134.098 80.3621 132.111 81.154 132.192C81.4769 132.225 81.4733 132.634 81.5587 132.988C81.7075 133.606 81.9587 134.17 82.1703 134.746C81.3846 134.792 80.5982 135.05 79.8972 135.572ZM80.1546 142.715C80.6037 143.202 80.8288 142.626 81.2527 142.416C81.644 142.223 82.0501 142.339 82.4837 142.201C83.0213 142.031 83.6545 142.057 84.1797 142.05C84.3092 142.048 84.5798 142.078 84.7106 142.099C84.9488 142.138 84.9275 142.209 85.1742 142.305C85.2694 142.273 85.3655 142.25 85.4627 142.236C85.5817 142.228 85.6755 142.299 85.7443 142.448C85.966 142.554 86.0467 142.484 86.2591 142.558C86.7648 142.735 87.1423 143.173 87.4726 143.753C88.1451 144.935 88.1651 146.71 88.1496 148.172C88.1452 148.588 88.1232 149.003 88.1552 149.418C88.1845 149.799 88.3718 150.375 88.2954 150.753C88.1793 151.326 87.8201 151.197 87.4017 151.223C87.1555 151.238 86.9096 151.466 86.7136 151.487C86.5241 151.506 86.4477 151.406 86.2559 151.344C85.7553 151.183 85.1647 151.413 84.6709 151.609C84.1643 151.809 83.72 152.008 83.2063 152.15C82.8719 152.242 82.5712 152.295 82.2339 152.355C81.9574 152.405 81.8381 152.614 81.5968 152.7C81.3642 152.783 81.1372 152.659 80.9025 152.724C80.5825 152.813 80.3595 153.15 80.068 153.318C79.6661 153.55 79.0237 153.204 78.8456 153.918C78.7759 153.229 78.3162 153.416 77.974 153.356C77.4101 153.255 76.8545 152.892 76.3121 152.66C75.8674 152.47 74.3298 150.719 74.0354 151.43C74.0359 151.358 74.0893 150.951 74.0428 150.904C73.8787 150.738 73.8801 150.829 73.7035 150.726C73.4333 150.567 73.3194 150.424 73.1263 150.156C72.7356 149.615 72.2099 149.332 71.7985 148.842C70.7647 147.609 70.4108 145.07 70.1586 143.302C69.8288 144.142 69.9502 143.065 70.0072 142.704C70.1422 141.855 69.9686 141.435 69.9294 140.614C69.8932 139.859 70.1329 139.71 70.6075 139.631C71.1923 139.533 71.7551 139.397 72.3278 139.188C72.8747 138.987 73.4106 138.762 73.9042 138.363C74.3559 137.999 74.8298 137.855 75.2916 137.536C75.8009 137.184 76.3005 136.814 76.8144 136.472C77.0459 136.317 78.0659 135.211 78.243 135.279C78.6064 135.417 78.2632 136.332 78.1524 136.572C77.8677 137.188 77.4001 137.474 76.9784 137.862C76.5981 138.211 75.4443 139.867 76.6156 139.701C77.3917 139.591 77.9174 138.423 78.4139 139.754C78.5891 140.225 78.8471 140.602 78.6456 141.088C78.3642 141.766 77.5526 142.089 77.1271 142.545C76.7644 142.934 76.0224 144.767 76.7702 144.964C76.9851 145.02 77.3164 144.947 77.4763 144.707C77.5841 144.545 77.5765 144.212 77.6855 144.101C77.84 143.944 78.1402 144.139 78.3165 144.053C78.5678 143.93 78.6268 143.733 78.7192 143.386C78.9875 143.562 78.9913 143.798 79.2977 143.571C79.3993 143.496 79.4366 143.22 79.5543 143.146C79.7123 143.047 79.7594 143.371 79.8461 143.324C80.081 143.194 80.0801 143.048 80.1546 142.715ZM64.0471 137.323C63.5971 137.371 63.1056 137.423 62.7216 137.011C63.1881 137.052 63.5997 137.203 64.0673 137.064C64.2532 137.009 64.5507 136.757 64.7412 136.845C65.4179 137.157 64.2273 137.303 64.0471 137.323ZM62.7973 80.4485C62.7906 80.2211 62.6564 77.1616 63.3838 78.3634C63.583 78.6922 63.3683 79.1325 63.3399 79.4961C63.2921 80.1089 63.4417 80.7229 63.6663 81.2389C63.8759 81.7201 64.2674 82.1416 64.2088 82.7691C64.1573 83.3197 63.7706 83.7898 63.58 84.2467C63.1114 83.1855 62.835 81.7256 62.7973 80.4485ZM61.1983 48.3391C59.5125 48.5939 57.8352 49.0449 56.2098 49.741C54.6139 50.4242 53.1263 51.4925 51.6267 52.516C51.3176 50.6149 50.994 48.7187 50.6887 46.8161C50.5419 45.9004 50.4015 44.9823 50.2641 44.0634C50.1662 43.4102 49.8103 42.192 49.9588 41.5495C50.0377 41.209 50.1416 41.2074 50.3112 40.9972C50.4147 40.8689 50.5951 40.5549 50.7025 40.4877C50.9639 40.3244 51.6352 40.1813 51.9026 40.2046C52.1465 40.2257 52.2739 40.3648 52.5248 40.2641C52.7383 40.1785 52.9177 39.9423 53.1181 39.8129C53.6281 39.4835 54.2647 39.373 54.8101 39.1986C55.335 39.031 55.8769 38.9936 56.4031 38.8275C56.8639 38.6818 57.0829 38.1945 57.476 38.2121C58.4989 38.258 59.6301 38.0857 60.645 37.7346C61.7837 37.3408 63.0225 37.4169 64.1908 37.3747C64.6562 37.3579 64.9833 37.2075 64.9858 37.952C64.9885 38.8605 64.7359 39.8806 64.607 40.7675C64.3211 42.7341 64.0791 44.6457 63.971 46.6425C63.917 47.6415 63.6319 47.5717 63.0667 47.8781C62.4378 48.2188 61.8671 48.2382 61.1983 48.3391ZM52.3349 68.5156C52.7503 68.6037 52.7026 66.9715 52.733 66.6397C53.7234 69.3228 54.8387 71.905 55.7113 74.6761C55.9152 75.3241 56.1005 75.9871 56.3161 76.6273C56.4635 77.0657 56.7935 77.6541 56.7856 78.164C56.7771 78.6961 56.478 78.8953 56.1627 79.0925C55.822 79.3056 55.6889 79.4119 55.4487 79.1656C55.1581 78.867 54.9155 77.9476 54.7359 77.5045C54.4618 76.8278 54.1993 76.1415 53.9308 75.4605C53.4445 74.2256 52.8705 73.0433 52.4709 71.7471C52.0965 70.5327 51.5301 69.4876 51.1266 68.2947C50.727 67.1133 50.1801 65.9932 49.7207 64.8368C50.1821 64.5611 50.7571 63.872 51.2813 63.9103C51.8227 63.9499 51.8096 64.7007 51.833 65.3261C51.8577 65.9902 51.703 68.3812 52.3349 68.5156ZM53.665 80.6381C53.418 81.0591 52.8609 81.3066 52.5193 81.5401C52.0461 81.8634 51.5618 82.1511 51.0909 82.481C49.5459 83.5641 48.0074 84.5555 46.4334 85.5501C45.6198 86.0641 44.8162 86.6105 44.0223 87.1844C43.6064 87.4849 42.69 88.5382 42.2115 88.565C41.663 88.5956 41.6501 87.0043 41.5293 86.4075C41.4277 85.908 41.2393 85.5192 41.1124 85.0458C41.0608 84.8523 41.1009 84.7057 41.0222 84.5141C40.9326 84.2958 40.6815 84.1199 40.5524 83.9318C40.0041 83.1318 39.5497 82.1135 39.0867 81.2124C38.6626 80.387 37.939 79.3534 37.7356 78.3419C37.3355 76.3533 39.6598 75.2526 40.549 74.4537C42.106 73.0549 43.6705 71.618 45.1548 70.0639C45.8309 69.3558 46.4928 68.6198 47.1723 67.9181C47.4894 67.5908 48.3681 66.3172 48.7751 66.771C48.9266 66.94 48.9295 67.4075 48.9928 67.6526C49.131 68.1882 49.3408 68.6557 49.5533 69.136C49.742 69.5613 50.0104 70.0012 50.1283 70.4759C50.2689 71.0419 50.2624 71.3625 50.5198 71.8702C50.9878 72.7935 51.2088 73.8588 51.644 74.8001C52.0635 75.7077 52.4666 76.3772 52.7411 77.3914C52.8985 77.9726 53.1469 78.4882 53.3664 79.0227C53.4697 79.2752 53.5778 79.5233 53.6705 79.7846C53.8364 80.2517 53.8949 80.2456 53.665 80.6381ZM40.3847 88.4051C40.0877 88.7104 39.6505 88.1973 39.3625 88.1903C39.2371 88.187 39.1127 88.3275 39.029 88.3236C38.7773 88.3127 38.5716 88.0698 38.3398 87.9568C37.2701 87.434 35.9947 87.414 35.0809 86.3524C33.2656 84.2432 34.1311 80.0112 34.4617 77.2696C34.529 76.7106 34.6503 75.9365 34.3359 75.4785C33.9912 74.9767 33.4728 75.2761 33.1573 75.6823C32.8337 76.0985 32.6136 76.6817 32.3446 77.1679C31.9161 77.9422 31.4484 78.6741 30.976 79.3928C29.2975 81.9463 27.52 84.8681 25.4435 86.7421C24.58 87.5217 23.7983 88.578 22.8518 89.1721C21.7132 89.8866 22.8821 87.1281 23.0867 86.6799C24.4268 83.7463 26.3777 81.4242 28.0161 78.849C28.3254 78.363 28.7645 77.7078 28.77 77.0076C28.7783 75.9563 28.1319 76.0506 27.6208 76.3424C27.1428 76.6156 26.9033 77.2951 26.5187 77.7593C26.0399 78.3375 25.4804 78.8063 24.9475 79.2728C23.798 80.2791 22.5778 81.1235 21.3613 81.9467C20.7923 82.3318 20.2206 82.7087 19.6489 83.0855C19.4919 83.189 18.554 84.0438 18.5988 83.311C18.6049 83.2125 19.2032 82.1685 19.2771 82.1298C19.6455 81.9363 19.8282 82.5204 20.1561 81.7549C20.3891 81.2113 20.4213 80.9293 20.7502 80.5168C20.8062 80.4468 20.8447 80.2693 20.8901 80.1543C20.8845 80.1976 21.1344 79.8484 21.0866 79.909C21.1522 79.8257 21.2476 79.6731 21.3009 79.5731C21.5581 79.0908 22.0523 79.0816 22.2757 78.5304C22.3609 78.3206 22.3126 78.0514 22.4154 77.843C22.5594 77.5508 22.876 77.4264 23.0449 77.1694C23.1898 76.9485 23.3092 76.7684 23.3991 76.6334C23.4611 76.5403 23.5697 76.4751 23.643 76.3685C23.8254 76.1035 23.811 75.8688 24.0662 75.646C24.2954 75.4461 24.4007 75.6331 24.4801 75.138C24.7589 75.3948 24.7239 75.0191 24.8371 74.7499C24.9843 74.3998 25.1712 74.2436 25.374 73.9903C25.8203 73.4328 26.2386 72.6028 26.6183 71.9009C27.5625 70.1554 28.3261 68.1144 28.6074 65.9245C28.6747 65.4009 28.7118 64.8718 28.7386 64.3408C28.7529 64.0616 28.6894 63.3817 28.8098 63.1081C28.9967 62.6837 29.3514 62.8522 29.6212 62.6665C29.713 62.6032 29.8035 62.4173 29.8895 62.3751C30.0098 62.316 30.1571 62.3736 30.282 62.3166C30.3306 62.2947 30.3418 62.0896 30.422 62.0633C30.5794 62.0115 30.7358 62.0937 30.8914 62.0968C31.2318 62.1033 31.5678 62.0172 31.8943 61.8613C32.1913 61.7195 32.4399 61.3944 32.7362 61.2772C32.706 61.2894 33.2247 61.3485 33.1967 61.3066C33.2215 61.1231 33.2463 60.9395 33.2712 60.756C33.4681 60.9537 34.1396 61.2142 34.3478 61.1691C34.6827 61.0965 34.6121 60.6629 34.8959 61.2324C35.0567 61.0311 35.2173 60.8297 35.3779 60.6284C35.4996 61.362 36.3379 61.0061 36.7178 61.0465C37.2532 61.1039 37.6749 60.9595 38.1627 61.2272C38.7561 61.5534 39.2765 61.8969 39.9156 61.9859C40.3621 62.0479 40.5478 62.3495 40.9853 62.5356C41.5732 62.7854 41.6197 63.0612 41.4358 63.9242C41.2867 64.624 41.1578 65.1635 41.3757 65.8815C41.7621 67.1546 42.8121 67.6791 43.4892 68.5589C41.9032 70.158 40.3373 71.731 38.8042 73.4352C38.1618 74.1488 37.4787 74.8638 37.1129 75.9376C36.7755 76.9287 36.5841 78.1196 36.3811 79.1806C35.9154 81.6129 37.2273 83.2499 38.5749 84.32C38.8539 84.5411 40.7746 88.0044 40.3847 88.4051ZM37.769 91.3453C37.6741 90.8773 37.6865 90.7525 38.0009 90.5846C38.1199 90.5211 38.576 90.4381 38.6498 90.6727C38.8169 91.205 37.9386 91.1983 37.769 91.3453ZM51.1332 57.4449C51.2459 58.483 51.3567 59.5213 51.4573 60.5618C51.5127 61.1367 51.6385 61.6451 51.3405 62.0787C51.1711 62.3249 50.7603 62.4169 50.544 62.548C50.2322 62.7372 49.9282 62.954 49.6283 63.1797C49.0936 63.582 48.5347 63.8242 48.0069 64.1871C47.7773 64.3445 47.6412 64.6551 47.4425 64.8692C47.1706 65.1624 46.8399 65.305 46.5592 65.5838C46.0578 66.0824 45.5982 66.6725 45.097 67.1744C44.5292 67.7433 44.4109 67.5606 44.0919 66.7202C43.8057 65.9656 43.4621 65.6214 43.0499 65.0299C42.8896 64.7999 42.316 63.4889 42.8032 63.376C42.9281 63.3469 43.3595 63.6165 43.4573 63.7029C43.6058 63.8338 43.8431 64.5781 43.9639 64.5907C44.1814 64.6135 44.4599 63.7237 44.5955 63.4895C45.4839 61.9533 46.4611 60.4337 47.4906 59.0899C48.0242 58.3934 48.5847 57.7587 49.1895 57.1964C49.6197 56.7967 49.9951 56.2366 50.4192 55.8573C50.509 55.7458 50.6106 55.666 50.7247 55.6181C50.946 55.4738 51.0291 55.5984 50.974 55.9919C51.1009 56.377 51.0871 57.02 51.1332 57.4449ZM31.701 56.0846C31.9169 55.7688 32.1896 55.5164 32.3779 55.1639C32.4842 54.9651 32.5543 54.6096 32.6758 54.4811C32.8874 54.2571 33.1902 54.3604 33.4363 54.0601C33.6739 53.7698 33.8827 53.4223 34.1149 53.1212C34.6182 52.4688 35.1375 51.8691 35.6313 51.205C35.9119 50.8275 36.2062 50.3378 36.4555 50.0887C36.5216 50.0225 36.5956 49.9243 36.6659 49.8734C36.816 49.7647 36.891 49.8753 37.1101 49.774C37.2551 49.7073 37.3587 49.4435 37.4749 49.3187C37.7515 49.0221 38.1117 48.9047 38.3778 48.6191C38.6439 48.3336 38.772 47.8903 39.1383 47.6522C39.5814 47.3643 39.9135 47.5917 40.2337 47.0411C40.3644 46.8167 40.4001 46.5338 40.6052 46.3923C40.8522 46.2216 41.0691 46.4027 41.3051 46.2087C41.4642 46.0778 41.5729 45.8034 41.7371 45.6601C42.0311 45.4046 42.3564 45.3774 42.6313 45.061C42.8633 44.7942 42.7345 44.8216 43.0092 44.709C43.13 44.6594 43.264 44.6381 43.3929 44.5748C43.806 44.3724 44.4805 44.1245 44.7251 43.5617C44.8494 43.822 44.8919 43.8749 45.0934 43.794C45.1992 43.6702 45.2962 43.5343 45.3846 43.3858C45.4494 43.5035 45.519 43.5106 45.5932 43.4069C46.0291 43.1916 46.4291 42.8218 46.8585 42.6165C46.9193 42.6637 46.9802 42.7111 47.0409 42.7581C47.1255 42.7648 47.1599 42.7054 47.1438 42.5797C47.3127 42.5354 47.5074 42.4286 47.663 42.3312C47.9615 42.1444 48.2912 41.7004 48.6428 41.8593C49.23 42.1246 49.2581 43.8455 49.3594 44.5274C49.6091 46.2081 49.8604 47.8881 50.1112 49.5683C50.2132 50.2522 50.3028 50.9411 50.4371 51.6132C50.5249 52.0524 50.7433 52.7002 50.6645 53.1673C50.5677 53.7398 50.1789 53.9262 49.8537 54.191C49.4055 54.5559 48.9723 54.9608 48.5482 55.3811C46.7477 57.1653 45.4054 59.619 44.1287 62.1364C43.8921 61.6425 43.2587 60.9493 42.8638 60.7266C42.5872 60.5709 42.3384 60.6964 42.063 60.5064C41.8667 60.3707 41.7037 60.1056 41.5179 59.9349C40.3844 58.8918 39.0161 58.0296 37.7021 57.6158C35.0061 56.7663 32.3667 58.0816 29.7526 58.7059C30.283 57.6582 31.0762 56.9976 31.701 56.0846ZM49.7473 27.6543C50.2087 25.494 50.9857 23.4026 52.0914 21.782C52.6489 20.965 53.3042 20.251 54.0386 19.7967C54.6775 19.4018 55.4374 19.0231 55.4275 20.293C55.4059 23.0497 54.9627 25.7751 54.9085 28.5363C54.8558 31.242 55.1711 33.4139 56.3109 35.5942C55.5887 35.8352 54.8669 36.0796 54.1474 36.3359C53.601 36.5306 53.0344 36.7489 52.5175 36.8826C52.0065 37.0144 51.5365 37.1005 51.0312 37.3486C50.6906 37.5158 50.1571 38.027 49.7885 37.9161C49.1759 37.7317 49.3209 34.5746 49.2894 33.8162C49.201 31.6741 49.3073 29.716 49.7473 27.6543ZM60.9435 31.8137C61.7804 30.3542 62.65 28.6516 64.058 28.3806C65.4194 28.1186 65.9212 30.4642 65.8346 32.0459C65.8054 32.5811 65.75 33.9708 65.4794 34.4044C65.18 34.884 64.6485 34.5224 64.2681 34.4485C62.6261 34.1291 60.9427 34.6622 59.2962 34.6622C59.8452 33.7124 60.3971 32.7663 60.9435 31.8137ZM67.6809 37.6337C68.252 37.7513 68.708 37.8763 68.4322 38.8103C67.8802 40.681 67.4561 42.4662 67.9398 44.5055C68.3093 46.0628 69.4793 47.9533 70.6483 48.2654C71.058 48.3747 71.6742 48.179 71.926 48.7768C72.1503 49.3093 71.9072 50.906 71.881 51.4973C71.7838 53.6998 71.3912 55.8854 70.3988 57.6161C69.5157 59.156 68.4383 60.3613 67.1541 58.9077C66.0715 57.6826 65.4323 55.4909 65.112 53.6178C64.941 52.618 64.9202 51.6204 64.8875 50.5986C64.8586 49.6949 64.7387 49.1217 65.45 48.9342C65.6407 48.8842 66.1171 48.8999 66.1177 48.4817C66.1187 47.9198 65.6023 48.1305 65.4048 48.1021C64.6428 47.9929 64.9997 46.72 65.0707 45.8967C65.1916 44.4948 65.3875 43.1086 65.5673 41.7208C65.7204 40.5388 65.7285 38.9897 66.0609 37.8846C66.255 37.2392 67.2997 37.5552 67.6809 37.6337ZM69.0836 41.785C69.1702 41.023 69.2163 40.0708 69.7426 39.6496C70.3209 39.1869 70.6104 39.9408 70.8959 40.5568C71.6527 42.1912 72.4904 43.7205 72.6144 45.7493C72.6292 45.9913 72.7014 46.4771 72.5391 46.6445C72.4666 46.7193 72.2936 46.5221 72.1816 46.5338C71.582 46.5958 71.1484 46.8265 70.5605 46.3403C69.4102 45.3883 68.8744 43.6237 69.0836 41.785ZM73.6063 46.3488C73.4828 44.5746 72.9123 43.0014 72.2752 41.5036C71.9612 40.7651 71.3511 39.9578 71.1345 39.1776C71.0182 38.7596 71.2238 38.2421 71.6462 38.4213C71.8565 38.5106 72.2617 39.3122 72.4023 39.5894C72.7635 40.3022 73.0629 41.0972 73.3485 41.8754C73.654 42.7072 74.522 45.7595 73.6063 46.3488ZM69.8197 28.6829C69.8864 27.0137 69.8932 25.0969 70.6457 23.7118C71.2289 22.6376 72.2966 22.1701 73.1629 21.7548C74.3298 21.1953 75.7315 21.109 76.9519 21.2898C78.026 21.4491 78.8369 22.4997 79.4996 23.655C80.1738 24.8299 80.696 26.3427 81.1597 27.7096C81.2756 28.0516 82.2596 30.2463 81.5941 30.1952C81.3301 30.1748 81.1006 29.4344 80.8984 29.2156C80.7401 29.0445 80.5524 29.0656 80.4104 28.9286C80.2581 28.7818 80.2911 28.6459 80.173 28.4645C79.3601 27.2173 78.6123 27.9355 77.7354 28.5924C77.6944 28.1573 77.7663 27.349 77.5129 27.0311C77.1816 26.6149 76.8354 27.2742 76.5976 27.5974C76.3813 27.892 76.1146 28.4287 75.842 28.5881C75.4881 28.7948 75.6084 28.575 75.301 28.4013C74.6822 28.0516 74.2061 29.0867 73.8933 29.6886C73.7766 29.913 73.5857 30.4799 73.3767 30.5405C73.1744 30.599 73.1481 30.3922 72.9739 30.3159C72.481 30.1 72.3446 30.6049 72.1877 31.2318C72.011 31.9368 71.8607 32.6161 71.5992 33.2745C71.1366 34.4396 70.9378 34.8229 71.3037 36.1096C70.7694 36.2235 70.6572 36.3151 70.3922 35.6338C70.1194 34.9317 70.0485 34.3493 70.0656 33.5424C70.1015 31.8548 69.7508 30.397 69.8197 28.6829ZM82.2239 36.668C82.7834 38.1194 83.1389 40.1393 83.133 41.793C83.13 42.6134 83.0965 43.6224 82.83 44.3667C82.5742 45.0808 82.0386 45.4383 81.5455 45.7425C80.3565 46.4762 79.0172 46.4677 77.7672 46.1407C77.1185 45.9706 76.4874 46.0804 75.9322 45.5205C75.5144 45.0987 75.0105 44.6892 74.8881 43.9162C74.8369 43.5926 74.9159 43.3215 74.8996 43.004C74.9198 42.8529 74.9123 42.7056 74.8769 42.5617C74.8039 42.5015 74.7303 42.4428 74.6563 42.3856C74.5979 42.1444 74.7097 41.8756 74.681 41.6238C74.6465 41.3199 74.4709 41.0724 74.3887 40.7969C74.1626 40.0371 74.3241 39.6122 74.7474 39.0962C74.8487 38.9816 74.9506 38.8683 75.0532 38.7559C75.1452 38.5467 75.2469 38.5459 75.3582 38.7531C75.5598 38.757 75.5539 38.8464 75.766 38.7577C76.2304 38.5633 76.62 37.8533 77.075 37.6039C77.2518 37.5069 77.5155 37.5893 77.6591 37.4106C77.7873 37.2507 77.7048 36.9154 77.8176 36.7587C78.1774 36.2572 78.7437 36.7326 79.0765 36.0037C79.3482 35.409 79.2906 34.5653 79.3184 33.8901C80.1525 34.1191 80.5138 35.2674 81.199 35.8449C81.3345 35.0902 81.3543 35.1128 81.8774 34.9056C81.6404 35.5355 82.0237 36.1485 82.2239 36.668ZM82.8624 28.6557C83.016 28.9401 83.1333 29.6462 82.8624 29.7142V28.6557ZM83.5743 31.2237C84.8477 31.2274 85.6616 33.5402 86.0334 34.973C86.4375 36.531 86.8633 38.6091 86.1092 40.1265C85.8199 40.7084 85.4651 40.7617 84.9997 40.6862C84.4389 40.5953 84.1514 40.4788 84.3709 39.6179C84.782 38.0046 84.4728 35.9537 83.7441 34.6031C84.7463 34.325 84.111 33.0042 83.608 32.5099C83.0204 31.9328 82.5457 31.2205 83.5743 31.2237ZM54.501 114.835C54.2015 115.977 53.8969 117.115 53.6455 118.291C53.4072 119.406 53.5453 120.662 53.2491 121.734C53.0668 121.604 53.0146 121.374 52.8561 121.234C52.7585 121.148 52.5883 121.113 52.5045 121.018C52.3604 120.855 52.0109 120.247 51.9161 120.011C51.5889 119.195 51.8071 117.868 51.9821 117.03C52.1986 115.991 52.5685 114.993 53.0651 114.175C53.4136 113.601 53.6058 113.784 54.0716 114.066C54.3471 114.233 54.6307 114.34 54.501 114.835ZM52.2314 123.842C51.9921 124.538 51.5498 125.111 51.287 125.812C51.0114 126.548 50.8027 127.377 50.451 128.05C50.0932 128.737 49.7715 128.622 49.2787 128.918C49.1017 129.024 49.0273 129.221 48.885 129.375C48.618 129.662 48.3252 129.839 48.0446 130.094C47.8451 129.391 47.2354 125.859 46.4595 125.935C45.7851 126.001 46.1301 127.85 46.217 128.395C46.2906 128.856 46.3746 129.324 46.4864 129.769C46.5993 130.218 46.9513 130.891 46.8211 131.384C46.6557 132.009 46.2439 131.968 46.0378 131.512C45.8654 131.13 45.7779 130.611 45.6507 130.195C45.539 129.83 45.0285 127.83 44.5871 128.14C44.1619 128.439 44.8232 130.378 44.9338 130.758C45.2012 131.678 45.7137 132.561 45.0363 133.298C44.0081 134.417 42.7419 135.259 41.59 136.065C40.9176 136.536 40.3131 137.155 39.6072 137.537C38.9518 137.892 38.1944 137.952 37.5606 138.36C37.4047 138.46 37.5093 138.585 37.2815 138.644C37.0905 138.692 36.7567 138.561 36.5519 138.564C36.2125 138.569 35.8726 138.606 35.5339 138.545C35.3431 138.51 34.9088 138.21 34.9775 138.706C34.7076 138.598 34.6032 138.207 34.4063 137.962C34.2308 137.744 34.0068 137.626 33.8109 137.455C33.406 137.101 33.1033 136.698 32.9817 136.023C32.6966 134.439 33.2995 132.791 34.0436 131.686C34.4707 131.053 34.9718 130.526 35.3634 129.844C35.5008 129.605 35.5986 129.326 35.773 129.132C35.9865 128.894 36.2796 128.864 36.4864 128.623C36.6403 128.443 36.6863 128.157 36.8477 127.993C37.0862 127.749 37.3653 127.85 37.5907 127.531C37.7192 127.348 38.1605 126.489 38.1296 126.25C38.2504 126.308 38.3715 126.367 38.4921 126.425C38.5657 125.895 39.2016 125.242 39.5152 124.988C39.6738 124.86 39.9829 124.866 40.101 124.728C40.258 124.544 40.2451 124.159 40.3697 123.928C40.7271 123.267 41.4748 122.97 41.9481 122.51C42.5501 121.924 43.1348 121.26 43.6787 120.567C44.7779 119.166 45.747 117.537 46.5386 115.758C46.8576 115.041 47.1535 114.31 47.3805 113.525C47.5204 113.042 47.6598 112.182 48.0051 111.901C48.3617 111.612 49.1806 112.004 49.5799 112.045C50.1665 112.106 51.0807 112.068 51.6064 112.483C52.1684 112.925 51.7115 113.291 51.4222 113.819C50.9988 114.592 50.7451 115.537 50.5337 116.464C50.3708 117.177 50.3404 117.867 50.2338 118.586C50.1214 119.345 50.1224 120.371 50.3831 121.069C50.6411 121.76 52.5007 123.06 52.2314 123.842ZM30.0616 137.849C28.7989 135.379 29.8442 131.764 31.0795 129.768C32.5699 127.36 34.691 126.005 36.4334 124.047C38.4481 121.783 40.5173 119.679 42.3025 117.023C43.2074 115.677 43.9952 114.226 44.7097 112.661C45.3161 111.333 45.7564 109.563 46.9817 109.371C46.2589 110.666 46.2167 112.531 45.6578 113.972C45.0661 115.498 44.1938 116.767 43.3054 117.94C41.4297 120.417 39.4038 122.687 37.3778 124.901C36.3436 126.03 35.3381 127.211 34.3074 128.347C33.3844 129.364 32.4149 130.234 31.883 131.783C30.9652 134.457 30.9104 138.418 32.9427 140.065C31.8955 139.765 30.7177 139.132 30.0616 137.849ZM140.157 26.4695C139.784 25.3957 139.084 25.0132 138.381 24.5931C137.693 24.1819 137.064 23.6755 136.3 23.5439C135.961 23.4854 135.004 23.6307 134.959 22.9242C134.922 22.3355 135.922 21.7446 136.153 21.2961C136.494 20.6313 136.726 19.5519 136.594 18.7122C136.468 17.9159 135.929 17.6643 135.426 17.52C133.86 17.0715 132.196 17.4013 130.626 17.5856C130.818 17.1996 131.089 16.883 131.243 16.4207L131.492 17.164C131.633 16.7389 131.787 16.3217 131.963 15.9236C132.083 16.1161 132.202 16.3087 132.321 16.5011C132.123 15.5018 132.789 15.5069 132.719 14.6645C132.692 14.3368 132.538 14.1932 132.5 13.9298C132.425 13.4062 132.707 13.0787 132.386 12.5932C132.03 12.0524 131.447 12.2669 131.032 12.3173C130.98 12.3238 130.904 12.4719 130.837 12.4839C130.744 12.5009 130.69 12.3164 130.575 12.3262C130.265 12.3524 129.993 12.6977 129.685 12.8025C128.26 13.2887 126.834 14.1558 125.467 14.9653C124.074 15.7894 122.707 16.7489 121.493 18.0423C120.194 19.4265 119.255 21.206 118.218 22.9592C117.73 23.7831 117.225 24.5744 116.854 25.5236C116.662 26.0141 116.489 27.555 116.143 27.7789C115.768 28.022 114.825 27.3342 114.442 27.2073C113.539 26.9087 112.64 26.7841 111.714 26.8441C110.978 26.8915 110.201 26.8633 109.471 26.9926C109.047 27.0677 107.991 27.7433 107.923 28.4989C107.893 28.8346 108.161 29.1138 108.221 29.4285C108.312 29.9043 108.162 30.4085 108.266 30.8854C108.48 31.8578 109.47 32.2155 110.053 32.5217C111.681 33.3769 113.332 34.0401 114.977 34.8055C115.692 35.1385 116.304 35.6682 116.951 36.2C117.488 36.6408 117.978 37.082 117.436 37.9098C116.922 38.6939 116.986 39.0106 117.139 40.0908C117.301 41.2309 117.357 42.3838 117.567 43.5128C117.776 44.6372 118.168 45.7112 118.092 46.9009C118.015 48.0866 117.674 49.3045 117.354 50.3913C117.032 51.489 116.676 52.5739 116.325 53.6539C116.001 54.6531 115.65 55.6662 114.9 56.0926C113.467 56.9065 111.637 56.7776 110.145 56.4818C108.45 56.1463 106.7 55.5775 105.098 54.709C103.557 53.874 101.863 52.5932 100.588 51.08C99.9077 50.2717 99.1705 49.6729 98.4482 48.9494C97.716 48.2164 97.1602 47.2279 96.5189 46.3503C95.2619 44.6301 93.7145 43.4447 92.1217 42.4991C90.3311 41.436 88.4825 41.5464 86.5851 41.4314C86.8838 40.5884 87.2682 39.7827 87.4093 38.8442C87.5563 37.8668 87.4499 36.8048 87.3568 35.8282C87.176 33.9275 86.8336 32.2547 85.9984 30.7195C85.6165 30.0176 85.1706 29.4702 84.5344 29.3683C84.149 29.3063 83.4368 29.7316 83.1586 29.2626C83.0362 29.0558 83.0648 28.6209 82.9876 28.3663C82.9193 28.1401 82.782 27.9124 82.7075 27.6669C82.3891 26.6169 81.9917 25.6888 81.5948 24.6927C81.437 24.2965 81.3148 23.7118 81.0996 23.3784C80.9824 23.1971 80.8318 23.1147 80.7663 22.982C80.6436 22.7337 80.5872 22.2799 80.485 21.9997C80.31 21.5202 80.0875 21.0747 79.8307 20.679C79.4201 20.0465 78.8917 19.4884 78.3288 19.1733C78.0162 18.9983 77.787 18.9569 77.4605 18.9825C77.3649 18.99 77.2585 19.0692 77.1628 19.0588C76.9338 19.0337 76.9697 18.9158 76.7862 18.861C75.5585 18.4937 73.912 19.0091 72.7604 19.6418C71.5474 20.3081 70.5621 21.1868 69.825 22.7659C68.0142 26.6439 68.4362 31.651 69.2042 35.9224C68.7397 35.7471 68.2769 35.5399 67.8079 35.3913C67.5207 35.3002 67.1287 35.3174 66.8721 35.0995C66.3013 34.6148 66.7655 33.3713 66.769 32.5678C66.7778 30.5259 66.1071 27.3332 64.6444 26.4708C63.1203 25.5721 61.2662 28.0944 60.3241 29.5248C59.7197 30.4424 59.1701 31.4314 58.5917 32.3819C58.1876 33.0464 57.6538 34.1056 56.9453 33.9321C55.4 33.5535 55.8713 29.3298 55.9399 27.9022C56.0484 25.6456 56.2797 23.3526 56.2809 21.09C56.2817 19.7147 56.1161 17.8593 54.9404 17.698C53.3225 17.4762 51.7897 19.5905 50.8462 21.2172C48.3579 25.5066 47.8083 31.1763 48.4739 36.559C48.5715 37.3482 48.883 38.3217 48.2886 38.8116C47.5077 39.4552 46.5094 39.8449 45.6703 40.3176C43.7936 41.374 42.0559 42.7831 40.2891 44.1604C38.5399 45.5242 36.8188 46.8778 35.2406 48.6348C33.6674 50.3863 32.1102 52.2423 30.677 54.228C29.9629 55.2178 29.2736 56.2505 28.6233 57.3281C28.0115 58.3419 27.5157 59.4933 26.8506 60.4407C26.3979 61.0859 25.5651 61.9509 25.4656 62.935C25.3852 63.7294 26.3178 64.2802 26.7386 64.6472C27.0271 64.899 27.2271 64.8912 27.248 65.34C27.2737 65.8997 26.863 66.7967 26.7168 67.3303C26.3443 68.6915 25.8575 69.8192 25.2174 70.9519C23.7997 73.4613 22.0865 75.5888 20.4604 77.8178C18.9496 79.889 17.469 81.9276 16.3615 84.4976C16.0901 85.1273 15.4148 86.4205 16.0566 87.0098C16.2227 87.1624 16.7323 87.2831 16.9014 87.1194C17.111 86.9163 17.0048 86.6103 17.2524 86.4068C17.1904 87.0911 19.3534 85.754 19.5217 85.6301C19.9763 85.2954 20.3874 84.9032 20.8521 84.6033C21.1247 84.4272 21.1577 84.1821 21.3687 83.9857C21.4816 83.8807 21.483 84.0216 21.6339 83.9564C21.7698 83.8972 22.0889 83.8748 22.1903 83.6868C22.193 83.6813 22.3038 83.226 22.2097 83.3201C22.5781 82.9516 22.7959 83.5093 22.5748 84.0329C21.9207 85.5801 21.0938 86.7184 20.8376 88.5778C20.7445 89.2532 20.5857 90.507 20.8727 91.1226C20.8831 91.145 20.9797 91.0798 20.9915 91.1037C21.0024 91.1263 21.1077 91.3366 21.151 91.3964C21.4046 91.7449 21.3882 91.9002 21.8115 91.8856C21.9991 91.8791 22.3735 91.8445 22.5453 91.7228C22.6745 91.6312 22.7377 91.4053 22.8371 91.325C22.9376 91.2433 22.9258 91.2009 23.0201 91.1535C23.0395 91.1435 23.0766 91.3807 23.1134 91.3709C23.315 91.3163 23.4019 91.1433 23.5732 91.0039C24.0668 90.6025 24.5507 90.161 25.0207 89.7568C25.4939 89.35 25.8474 88.7826 26.3186 88.3101C26.8193 87.808 27.2287 87.4232 27.6138 86.7265C27.8804 86.2439 28.1985 86.0682 28.3775 85.8308C28.5898 85.5488 28.956 84.4602 29.2982 84.3308C29.4541 84.2717 29.5789 84.47 29.6642 84.3887C29.7603 84.2973 29.6556 84.1223 29.7037 84.0194C29.7938 83.8274 29.805 83.7955 29.9582 83.6193C30.1542 83.3941 30.3952 83.3336 30.5597 83.0401C30.7427 82.7132 30.7678 82.347 30.9929 82.0411C31.5345 81.3048 32.0166 80.5292 32.5905 79.8157C32.3689 81.5912 32.1492 83.354 32.321 85.1597C32.4874 86.9098 33.0043 87.6934 34.0189 88.5815C34.2423 88.7772 34.4766 89.0616 34.7166 89.2001C34.8623 89.2845 35.082 89.2343 35.1906 89.2962C35.5586 89.5059 35.4334 89.9349 35.4838 90.4183C35.5621 91.1676 36.0415 91.7443 36.3509 92.3281C36.6111 92.8191 37.0803 93.9361 37.5156 94.1058C37.9087 94.2588 38.2796 93.5982 38.607 93.3169C39.1006 92.8928 39.6384 92.5889 40.159 92.2422C41.1757 91.5655 42.1581 90.7579 43.1635 90.0421C43.6227 89.7153 44.0865 89.5822 44.5725 89.3711C45.1564 89.1175 45.6545 88.6324 46.2144 88.3014C47.2212 87.7063 48.1858 86.9961 49.1865 86.3711C51.2577 85.0778 53.5165 84.1893 55.3596 82.2488C56.1933 81.3709 57.2668 81.2774 58.0886 80.4244C58.945 79.535 58.4198 78.1751 58.0531 77.0837C57.0512 74.1023 56.4533 71.0061 55.0741 68.2899C54.3575 66.8787 53.6954 65.4205 53.0704 63.9203C52.5176 62.5926 52.5289 61.0887 52.3902 59.589C52.2973 58.5867 52.2102 57.5802 52.0967 56.5823C52.0248 55.948 51.7924 55.1489 52.0735 54.5742C52.3755 53.9564 53.0928 53.6935 53.5462 53.3676C54.1096 52.9627 54.6551 52.5269 55.2397 52.184C56.5755 51.4007 57.9825 50.8586 59.3838 50.38C59.8016 50.2374 61.5903 49.2169 61.9307 49.8147C61.5125 50.2163 61.3905 50.9454 61.2028 51.5706C60.9235 52.5019 60.6352 53.3893 60.4314 54.3652C60.0103 56.3833 59.6522 58.4337 59.3089 60.4814C58.9679 62.5145 58.5616 64.5637 58.4573 66.6584C58.4039 67.7276 58.4405 68.7974 58.4391 69.8677C58.4378 71.01 58.2729 72.1303 58.3023 73.2753C58.322 74.0368 58.3665 74.9516 58.6769 75.6012C58.9645 76.2031 59.4537 76.2702 59.88 76.5921C60.4425 77.0167 60.6627 77.1979 60.6679 78.122C60.6741 79.1991 60.6256 80.2567 60.6957 81.3331C60.94 85.0812 61.8164 89.5291 63.5658 92.4229C63.6822 92.6154 67.0763 98.7661 67.452 97.8657C67.7108 98.306 68.0977 98.4669 68.4162 98.8509C68.9168 99.4541 69.408 99.9364 69.8218 100.684C70.5752 102.043 71.2156 103.637 71.404 105.375C71.5658 106.872 71.4685 108.661 70.8812 109.958C70.2919 111.258 69.0323 112.112 68.0814 112.753C66.8314 113.594 65.5629 113.689 64.2058 113.478C63.5361 113.374 62.8718 113.211 62.207 113.058C61.9304 112.994 61.6079 112.994 61.346 112.844C61.0652 112.683 60.9701 112.506 60.6898 112.486C60.4805 112.471 60.366 112.538 60.1447 112.472C59.8708 112.389 59.5733 112.24 59.3001 112.139C58.9963 112.027 58.7472 111.867 58.4673 111.661C58.2081 111.47 57.9162 111.433 57.6667 111.252C57.2368 110.94 57.1042 110.419 56.5227 110.708C55.9087 111.013 56.0371 111.776 55.6452 112.299C55.2969 112.764 54.8655 112.334 54.5189 112.058C54.0088 111.651 53.479 111.312 52.9359 111.004C52.3492 110.671 51.7499 110.382 51.1393 110.153C50.4715 109.902 49.7379 109.852 49.0946 109.488C48.5293 109.167 48.286 108.547 47.8764 107.968C47.4456 107.359 46.8612 107.127 46.2641 107.181C45.1766 107.28 44.4339 108.969 43.8594 110.142C42.2545 113.419 40.4805 116.211 38.3351 118.785C37.3101 120.015 36.1547 121.061 35.1634 122.337C34.7453 122.875 34.4417 123.38 33.9466 123.781C33.2961 124.308 32.706 124.968 32.0841 125.562C29.6521 127.884 27.8683 131.267 28.5408 135.684C28.8435 137.672 29.4482 139.067 30.578 140.264C31.091 140.807 31.5604 141.259 32.2139 141.227C32.8308 141.198 33.3752 141.167 33.0117 140.112C33.4722 140.317 33.8576 140.822 34.3602 141.081C34.9394 141.379 35.6929 141.565 36.3077 141.583C37.2924 141.612 38.4505 140.866 39.3127 140.55C39.5537 140.462 40.0182 140.317 40.2928 139.992C40.5112 139.733 40.4638 139.426 40.7944 139.304C41.2276 139.142 41.3926 139.331 41.8075 138.954C42.4093 138.406 43.062 138.081 43.6864 137.577C44.5276 136.897 45.3362 136.13 46.1695 135.43C46.2806 135.87 46.9334 138.485 47.3367 137.224C47.6875 136.127 46.5483 135.188 47.2408 134.077C47.9016 133.018 48.0396 134.132 48.6805 134.623C49.5702 135.306 49.4367 134.031 49.178 133.276C49.0746 132.973 48.8571 132.518 48.9212 132.166C49.0447 131.485 49.4278 131.885 49.729 131.954C50.2034 132.063 50.5868 131.876 50.943 131.419C51.24 131.037 51.7311 130.708 51.9107 130.206C52.0004 129.954 52.0162 129.608 52.0908 129.341C52.1893 128.989 52.2596 129.075 52.2954 128.638C52.2611 128.412 52.2475 128.183 52.2544 127.952C52.3324 127.929 52.41 127.907 52.4877 127.884C52.4901 127.868 52.4956 127.427 52.4642 127.493C52.5369 127.341 52.6929 127.277 52.7827 127.067C52.8652 126.873 52.7884 126.502 52.8216 126.273C52.8888 125.811 53.072 125.438 53.2217 125.025C53.5383 126.95 53.4467 128.958 53.7493 130.884C53.9979 132.466 54.5638 133.883 55.2241 135.18C55.5302 135.781 55.9354 136.207 56.2557 136.778C56.5268 137.262 56.6624 137.687 57.0625 137.973C57.3287 138.162 57.6281 138.26 57.9024 138.424C58.0778 138.529 58.4771 139.012 58.6417 139.003C58.4983 139.011 58.9111 139.029 58.8154 139.006C58.8225 139.007 58.7665 138.747 58.8163 138.752C59.4147 139.566 60.0398 139.568 60.7323 140.074C61.0496 140.305 61.1683 140.291 61.5064 140.377C61.9446 140.488 62.3134 140.847 62.733 140.885C63.3789 140.944 64.1063 141.069 64.7798 141.035C64.9629 141.025 65.3073 140.856 65.4509 141.086C65.5458 141.238 65.3658 142.336 65.3545 142.588C65.2361 145.226 65.4815 147.997 66.2563 150.411C66.8989 152.413 67.584 154.781 68.7203 156.31C69.98 158.004 71.7445 159.198 73.4292 159.655C75.2945 160.161 77.1434 159.782 79.0145 159.625C80.9129 159.465 82.6694 159.079 84.5002 158.288C86.2028 157.553 87.8154 156.594 89.4446 155.584C90.5526 154.896 91.9574 153.907 91.3766 151.821C91.2362 151.316 90.6915 149.914 90.2096 150.606C89.7832 151.218 90.496 152.377 90.8185 152.766C88.3871 155.202 85.4367 156.008 82.5917 156.871C81.0293 157.344 79.4901 157.324 77.9009 157.331C76.5542 157.337 75.2076 157.392 73.8697 157.122C72.6592 156.878 71.2498 156.419 70.349 155.148C69.4067 153.817 68.515 152.229 67.8719 150.57C67.1662 148.748 66.995 146.779 66.938 144.725C66.908 143.644 66.8742 142.549 66.9529 141.47C67.0102 140.687 67.2884 140.594 67.4264 139.976C67.7453 140.618 67.9553 140.38 68.3469 140.005C68.6 141.021 68.4872 142.076 68.4436 143.123C68.4014 144.143 68.496 145.177 68.5829 146.19C68.7303 147.912 69.3046 149.708 70.0331 151.094C70.3625 151.721 70.8561 151.985 71.3026 152.418C71.8719 152.97 72.4622 153.484 73.0565 153.979C74.1756 154.912 75.3969 155.709 76.6583 155.85C77.1001 155.899 77.4215 156.23 77.9479 156.183C78.2605 156.156 78.5754 156.002 78.8873 156.014C79.1999 156.027 79.4684 156.17 79.7895 156.137C81.1238 155.998 82.4993 155.37 83.8204 155.025C85.2508 154.652 86.69 154.25 88.0555 153.513C88.6472 153.193 89.1358 152.781 89.4661 151.978C89.7019 151.404 89.6402 150.376 90.0797 150.033C89.7918 149.499 89.8988 149.405 90.1475 148.928C90.2636 148.705 90.6384 148.117 90.1839 148.127C90.3221 147.268 90.0909 146.436 89.9924 145.595C89.95 145.232 89.9615 144.682 89.8051 144.37C89.7139 144.188 89.562 144.184 89.4805 144.05C89.3961 144.047 89.3301 143.997 89.2829 143.899C89.2773 143.755 89.3241 143.667 89.4231 143.636C89.4002 143.352 89.5466 143.454 89.4002 143.01C89.2006 142.403 88.8217 141.875 88.463 141.462C88.1574 141.111 87.9323 140.487 87.5794 140.299C87.1203 140.055 86.6388 139.79 86.1564 139.563C85.0627 139.05 83.9786 138.853 82.8309 139.138C82.3054 139.269 81.7875 139.429 81.28 139.662C80.983 139.799 80.5288 140.168 80.2657 139.77C80.1753 139.633 79.9867 138.474 79.9985 138.349C80.0456 137.847 80.76 137.644 81.0207 137.468C81.4191 137.2 82.1567 136.913 82.4096 136.381C82.5158 136.158 82.3959 135.211 82.4133 135.194C82.5804 135.032 83.2818 137.333 83.4728 137.49C83.7491 137.716 84.5253 137.417 84.8108 137.372C85.6628 137.237 86.529 137.161 87.3634 136.869C88.9637 136.309 90.5349 135.443 92.0921 134.677C95.0547 133.221 97.9148 131.302 100.578 128.919C101.822 127.806 103.057 126.383 104.004 124.766C104.431 124.037 104.733 123.173 105.168 122.458C105.671 121.633 105.513 120.889 105.738 119.856C106.194 117.765 106.749 115.866 106.997 113.675C107.253 111.419 107.358 109.115 107.287 106.831C107.147 102.317 106.995 98.0368 105.614 93.889C104.349 90.0878 102.709 86.3738 100.759 83.2266C100.306 82.4954 99.8275 81.7984 99.2707 81.2296C98.6715 80.6168 98.0118 80.1363 97.4693 79.4126C97.0241 78.8187 96.6518 78.1192 96.1862 77.5554C95.6145 76.8639 94.9347 76.5582 94.2652 76.1163C93.6234 75.6931 93.038 75.1426 92.3817 74.7573C91.9824 74.5231 91.5778 74.3067 91.1614 74.1432C90.8538 74.0223 90.445 74.0147 90.1636 73.785C89.7184 73.4217 89.2629 72.3645 88.9722 71.7671C88.5479 70.8958 88.318 69.8821 88.1162 68.869C87.8705 67.6365 87.6423 66.3964 87.4022 65.1615C87.32 64.7396 87.0133 63.2712 87.625 63.6276C87.8039 63.7318 87.9718 64.1952 88.1097 64.393C88.3709 64.7688 88.6935 65.1045 89.0176 65.36C89.5404 65.7721 90.0849 66.2683 90.5862 66.5523C91.028 66.8026 91.4824 67.2931 91.8943 67.6461C91.9568 67.6998 91.9751 67.8842 92.0558 67.9357C92.2456 68.0568 92.372 67.7228 92.5514 67.8046C92.7963 67.9163 92.8366 68.2479 92.9725 68.5117C93.1696 68.8942 93.2716 68.9246 93.5727 69.1214C93.9075 69.3404 94.1533 69.7731 94.4797 69.9877C94.8764 70.248 95.7492 70.046 95.8088 70.9439C96.425 70.3655 97.1982 71.4886 97.5828 72.0713C97.97 71.2172 98.6559 72.2172 99.2418 71.9337C98.9176 72.5812 98.9765 72.5169 99.4881 72.5969C99.92 72.6647 100.178 73.0768 100.605 73.3162C100.901 73.4819 101.228 73.7607 101.535 73.8775C101.825 73.9879 102.045 73.7402 102.298 73.8022C102.473 73.8448 102.639 74.0616 102.805 74.1208C103.015 74.196 103.315 74.2873 103.552 74.3685C103.842 74.4672 104.129 74.3765 104.418 74.455C104.755 74.5465 105.045 74.8347 105.387 74.9282C105.768 75.0323 106.164 74.9627 106.543 75.0956C106.889 75.2165 107.099 75.3557 107.456 75.3607C107.99 75.3683 108.585 75.4696 109.112 75.3831C109.393 75.337 109.548 75.1326 109.866 75.3324C110.077 75.4657 110.204 75.8773 110.493 75.6888C110.188 75.5133 110.456 74.8301 110.791 75.3535C110.871 75.0599 110.922 74.8962 111.143 74.7999C111.132 75.0871 111.099 75.3755 111.354 75.4357C111.374 75.2356 111.394 75.036 111.413 74.836C111.967 75.4422 112.098 75.6562 112.621 74.9164C112.608 75.1587 112.536 75.4326 112.708 75.6042C112.817 75.3422 112.927 75.0804 113.037 74.8186C113.222 75.6636 114.107 75.372 114.535 75.2222C114.702 75.1641 115.161 75.0723 115.269 74.8764C115.345 74.7407 115.335 74.6344 115.363 74.5511C115.388 74.4772 115.106 74.2954 115.346 74.1893C115.527 74.109 115.667 74.6781 115.879 74.6555C116.069 74.6353 116.145 74.1751 116.281 74.0819C116.294 74.0732 116.386 74.2676 116.45 74.2249C116.55 74.1588 116.607 73.9847 116.716 73.9229C116.954 73.7892 117.262 73.8224 117.528 73.6639C117.866 73.463 118.206 73.3671 118.551 73.2014C118.988 72.9916 119.187 72.5791 119.541 72.2416C119.625 72.1624 119.711 72.2085 119.793 72.1527C119.903 72.0772 120.018 71.9004 120.149 71.8171C120.56 71.5553 120.911 71.3772 121.301 71.0161C121.649 70.6938 122.107 70.4559 122.417 70.0693C122.674 69.7475 122.813 69.2778 123.072 68.9503C123.444 68.4802 124.405 67.8905 124.249 66.9722C124.871 67.1087 125.024 66.5301 125.252 65.8919C125.469 65.2848 125.914 65.1028 126.205 64.5492C126.331 64.31 126.534 63.9781 126.603 63.705C126.645 63.5426 126.541 63.373 126.569 63.2621C126.698 62.7519 127.196 62.5293 127.426 62.0692C127.719 61.4838 127.814 60.7436 128.058 60.1424C128.106 60.0241 128.225 59.9538 128.271 59.8277C128.3 59.7466 128.239 59.5457 128.274 59.4661C128.36 59.2771 128.494 59.2119 128.58 59.0369C128.787 58.613 128.825 58.0105 129.011 57.5299C129.057 57.4116 129.217 57.0811 129.237 57.0107C129.304 56.7741 129.284 56.6186 129.319 56.3553C129.329 56.2761 129.436 55.818 129.457 55.7525C129.526 55.5481 129.592 55.5179 129.697 55.2935C129.958 54.7318 130.121 53.8496 130.142 53.1677C130.151 52.8785 130.084 52.5795 130.157 52.3036C130.22 52.065 130.414 51.9178 130.487 51.668C130.679 51.0128 130.647 50.0865 130.7 49.3856C130.757 48.6218 130.928 47.8687 130.974 47.1105C130.997 46.7434 130.877 46.4184 130.886 46.0726C130.896 45.6766 131.039 45.6027 131.094 45.2733C131.157 44.8971 131.065 44.4637 131.121 44.0603C131.174 43.685 131.25 43.3378 131.271 42.9529C131.328 41.9504 131.248 40.9017 131.218 39.8988C131.206 39.5096 131.17 39.1036 131.242 38.7227C131.299 38.416 131.535 38.0731 131.527 37.7407C131.503 36.713 130.931 37.6024 130.602 37.5319C130.22 37.4499 130.149 36.2174 130.049 35.7499C129.803 34.6079 129.556 33.4658 129.31 32.324C130.484 31.885 131.704 32.0116 132.902 31.893C134.08 31.7767 135.229 31.4097 136.371 30.9963C137.335 30.6475 138.389 30.4451 139.255 29.7001C139.983 29.0747 140.582 27.6906 140.157 26.4695Z" fill="black"/>
<path fill-rule="evenodd" clip-rule="evenodd" d="M26.1899 48.5767C26.6593 48.2261 26.5409 47.7417 26.8857 47.2915C28.8151 44.7726 31.0794 42.5731 33.3487 40.757C35.7395 38.8435 38.4222 38.0333 40.8658 36.3376C41.1946 36.1095 41.6216 35.7529 41.499 35.1175C41.3557 34.3751 40.8636 34.7167 40.5129 34.892C39.344 35.4759 38.1001 35.6957 36.9146 36.2087C34.384 37.3035 32.0142 39.1916 29.8705 41.4015C28.6234 42.6869 27.4287 44.1081 26.3637 45.7046C25.9715 46.2921 25.4485 46.9778 25.3465 47.8243C25.2201 48.872 25.6512 48.9789 26.1899 48.5767Z" fill="black"/>
<path fill-rule="evenodd" clip-rule="evenodd" d="M33.4979 114.438C33.4867 113.512 32.7848 113.849 32.4238 113.973C30.9558 114.48 29.6436 114.867 28.3446 116.039C25.9336 118.215 24.1069 121.519 22.925 125.177C22.7676 125.663 22.134 127.206 22.6418 127.665C22.9767 127.968 23.1798 127.086 23.3048 126.758C23.9413 125.092 24.7937 123.617 25.6507 122.17C27.5534 118.955 29.8407 116.915 32.5773 115.426C32.913 115.243 33.5064 115.111 33.4979 114.438Z" fill="black"/>
<path fill-rule="evenodd" clip-rule="evenodd" d="M114.628 91.6979C114.12 90.2303 113.299 88.4194 112.163 87.8149C111.534 87.4805 111.162 88.0339 111.349 88.9587C111.497 89.6941 111.993 90.0533 112.362 90.5411C113.314 91.7962 113.9 93.6699 114.248 95.4099C114.615 97.2493 114.688 99.2453 114.682 101.149C114.678 102.155 114.492 103.029 114.39 104.007C114.35 104.392 114.282 105.24 114.59 105.48C115.272 106.012 115.587 103.233 115.657 102.699C115.913 100.727 115.888 98.9124 115.672 96.9445C115.475 95.1449 115.197 93.344 114.628 91.6979Z" fill="black"/>
<path fill-rule="evenodd" clip-rule="evenodd" d="M112.677 21.1757C112.955 20.6383 112.752 19.8859 112.835 19.2732C112.921 18.6309 113.179 17.9812 113.398 17.4194C113.869 16.2066 114.395 15.0155 114.955 13.8842C115.534 12.716 116.24 11.7206 116.855 10.5981C117.063 10.2184 117.431 9.67571 117.342 9.21869C117.196 8.47874 116.879 8.83938 116.625 9.14948C115.237 10.8451 114.015 12.9358 113.028 15.1317C112.559 16.1739 112.116 17.3152 111.961 18.5515C111.881 19.19 111.881 19.8562 112.012 20.4813C112.095 20.8742 112.344 21.8215 112.677 21.1757Z" fill="black"/>
<path fill-rule="evenodd" clip-rule="evenodd" d="M27.1383 111.623C27.8339 111.531 28.5333 111.498 29.2305 111.446C29.7466 111.408 30.327 111.454 30.8007 111.097C31.2773 110.738 31.0701 110.2 30.6738 110.12C30.446 110.074 30.0615 110.295 29.8174 110.31C29.553 110.327 29.2872 110.315 29.0226 110.317C28.2492 110.321 27.416 110.312 26.6703 110.681C26.4268 110.802 26.0579 110.988 25.9577 111.388C25.7435 112.244 26.8158 111.666 27.1383 111.623Z" fill="black"/>
<path fill-rule="evenodd" clip-rule="evenodd" d="M33.2286 33.3547C34.2387 33.1807 35.215 32.7458 36.2101 32.4686C37.1563 32.2053 37.3173 31.1337 36.1972 31.1817C35.8211 31.1978 32.1949 32.1861 33.2286 33.3547Z" fill="black"/>
<path fill-rule="evenodd" clip-rule="evenodd" d="M116.693 87.0997C116.015 86.8557 116.366 87.9371 116.576 88.2715C116.964 88.8897 117.176 89.3527 117.292 90.177C117.359 90.6569 117.296 91.7405 117.58 92.1075C117.859 92.4687 117.878 92.2289 117.928 91.7829C118.067 90.5258 117.788 87.4937 116.693 87.0997Z" fill="black"/>
<path fill-rule="evenodd" clip-rule="evenodd" d="M109.244 18.6705C109.436 18.3777 109.23 17.1048 109.252 16.7317C109.28 16.2796 109.354 15.8971 109.448 15.4729C109.494 15.2672 109.723 14.5412 109.6 14.3158C109.429 14.0033 109.144 14.5313 109.054 14.7392C108.762 15.4157 108.693 16.5436 108.742 17.3053C108.759 17.5811 108.875 19.2305 109.244 18.6705Z" fill="black"/>
<path fill-rule="evenodd" clip-rule="evenodd" d="M69.2875 126.017C69.3194 125.296 69.8027 124.796 69.8041 124.029C69.8059 123.168 69.4024 122.795 68.8998 123.354C68.5968 123.692 68.3608 124.515 67.9509 124.622C67.1288 124.839 66.8064 122.718 65.9966 122.963C65.2956 123.175 65.6641 124.905 65.8755 125.489C66.0997 126.108 66.5069 126.542 66.3743 127.303C66.2169 128.207 65.6769 128.728 65.887 129.759C66.2772 131.676 67.1243 129.884 67.6338 129.281C67.9968 128.852 68.2161 128.928 68.5686 129.349C69.0515 129.926 69.4205 130.318 70.0062 130.706C70.5226 131.049 71.0208 131.288 71.0368 130.138C71.0495 129.234 70.5743 128.334 70.1571 127.721C69.8108 127.212 69.2521 126.819 69.2875 126.017Z" fill="black"/>
<path fill-rule="evenodd" clip-rule="evenodd" d="M60.2382 123.157C59.6339 122.232 58.8707 124.592 58.3824 124.853C57.5909 125.277 57.4086 123.008 56.68 123.079C56.1128 123.135 56.1576 124.302 56.2811 124.835C56.414 125.408 56.8118 125.877 56.8784 126.464C56.9809 127.365 55.7952 129.164 56.6226 130.034C57.329 130.777 57.5921 128.268 58.4752 129.291C58.9087 129.794 60.1218 131.664 60.7228 130.733C61.433 129.633 59.7438 127.756 59.4355 126.919C59.0183 125.787 61.1237 124.513 60.2382 123.157Z" fill="black"/>
<path fill-rule="evenodd" clip-rule="evenodd" d="M74.8769 91.0016C74.7035 90.8918 74.4235 91.0734 74.236 91.0619C74.0346 91.0497 73.825 90.9181 73.6264 90.8696C73.1949 90.7635 72.4361 90.9168 72.1298 90.3643C71.8174 89.8007 72.0549 88.6691 71.9214 87.9835C71.8488 87.6105 71.7647 87.1504 71.4152 87.3168C71.0096 87.5096 71.0194 88.5797 70.971 89.049C70.8997 89.7415 70.8422 90.2697 70.3576 90.5161C69.9989 90.6983 69.6215 90.6065 69.3315 91.0299C69.119 91.34 68.9757 91.9064 69.142 92.3118C69.3918 92.9206 69.9327 92.6053 70.308 92.7978C70.8803 93.0913 70.7442 94.4345 70.8615 95.2058C70.9366 95.7013 71.1018 97.0891 71.5972 97.0667C72.2726 97.0365 72.0103 95.0868 71.9729 94.5178C71.9349 93.9404 71.8445 93.4507 72.293 93.2711C72.6719 93.1198 73.2011 93.401 73.5924 93.3975C74.0866 93.3931 74.6689 93.2148 74.9671 92.5786C75.1374 92.2148 75.2453 91.2352 74.8769 91.0016Z" fill="black"/>
<path fill-rule="evenodd" clip-rule="evenodd" d="M99.6972 114.997C100.771 115.13 100.12 117.031 100.833 117.786C101.513 118.508 101.604 116.517 101.604 115.949C101.604 114.573 102.769 115.082 103.478 114.854C104.084 114.66 104.745 113.756 104.022 112.987C103.5 112.432 102.635 112.689 102.029 112.542C101.208 112.343 101.452 111.555 101.434 110.648C101.427 110.315 101.348 109.129 101.048 109.036C100.501 108.865 100.468 111.074 100.431 111.494C100.275 113.273 99.4245 112.189 98.749 113.081C97.8659 114.246 99.0573 114.917 99.6972 114.997Z" fill="black"/>
<path fill-rule="evenodd" clip-rule="evenodd" d="M48.6219 81.838C46.9442 83.8135 45.0389 83.5304 43.5034 81.4038C42.8541 80.5044 42.4617 79.5981 42.5199 78.2821C42.5719 77.0979 42.814 75.7893 43.4741 74.9895C44.0299 74.3154 45.0783 74.0736 45.7821 73.9792C46.7686 73.8475 47.6512 74.619 48.3336 75.5831C48.9278 76.4227 49.6225 77.4923 49.714 78.7387C49.8105 80.0502 49.2904 81.0506 48.6219 81.838ZM48.8771 73.9766C47.3721 71.8946 44.7033 72.1035 43.1495 74.0023C41.4055 76.1335 41.1073 80.1372 42.7834 82.4721C44.5497 84.9327 46.8814 84.6672 48.751 82.6261C49.754 81.5314 50.2982 80.1265 50.4379 78.3241C50.5697 76.6206 49.7001 75.115 48.8771 73.9766Z" fill="black"/>
<path fill-rule="evenodd" clip-rule="evenodd" d="M77.978 38.1385C77.8091 38.927 77.9261 39.767 77.9561 40.5703C77.479 40.1415 77.182 39.3769 76.6698 39.0216C76.4241 39.9966 77.6482 42.7854 78.4187 41.8713C79.1236 41.0347 78.6033 38.7004 77.978 38.1385Z" fill="black"/>
<path fill-rule="evenodd" clip-rule="evenodd" d="M80.4814 42.9465C80.1016 43.1498 79.7486 43.0935 79.374 43.1977C79.1269 43.2664 79.095 43.0646 79.0629 43.471C78.9948 44.3384 79.9688 44.6739 80.4077 44.6617C80.9432 44.6467 81.53 44.1294 81.4783 43.2873C81.4245 42.4099 80.8943 42.7256 80.4814 42.9465Z" fill="black"/>
<path fill-rule="evenodd" clip-rule="evenodd" d="M80.7926 39.3011C80.6203 39.0762 80.2233 38.2273 79.9319 38.3726C79.7087 38.4839 79.8664 38.8673 79.9319 39.0591C80.1771 39.7784 80.6585 40.3905 81.043 40.9676C80.7582 41.1128 80.2097 41.2063 80.3545 41.8361C80.4877 42.4145 81.0912 42.3256 81.3805 42.082C82.3712 41.2477 81.2883 39.9475 80.7926 39.3011Z" fill="black"/>
<path fill-rule="evenodd" clip-rule="evenodd" d="M81.7928 37.9354C81.8606 38.3327 81.897 38.7076 81.7474 39.0801L80.9223 36.9541C80.2587 37.3455 81.4227 40.4084 82.1007 40.0694C82.5696 39.835 82.3444 38.3953 82.2704 37.9424C82.2307 37.6999 82.1364 36.9288 81.9024 36.8506C81.4421 36.6966 81.7426 37.6425 81.7928 37.9354Z" fill="black"/>
<path fill-rule="evenodd" clip-rule="evenodd" d="M47.7522 80.8164C47.3695 80.4111 46.7353 81.3602 46.3307 81.3637C45.5128 81.37 45.9582 79.992 45.4464 79.5454C45.1795 79.3123 44.0621 79.5474 44.2386 78.5828C44.3447 78.0026 44.7599 78.4214 44.9874 78.067C45.2729 77.6227 44.866 77.2683 44.6128 77.0858C44.7239 76.873 45.3642 76.7795 45.5251 76.9267C45.8027 77.1813 45.7867 77.945 46.0414 78.3381C46.372 77.7319 46.1926 76.9702 46.5447 76.4259C46.6814 76.2143 47.0813 76.0554 46.9258 75.6781C46.8356 75.4589 46.4407 75.5313 46.3055 75.3571C46.1876 75.2051 46.1935 74.715 46.0031 74.6743C45.6921 74.6078 45.6996 75.2906 45.6062 75.4878C45.3251 76.0804 44.0901 75.876 44.6021 77.078C44.261 76.8336 43.3307 76.6403 43.5113 77.4938C43.5575 77.7121 43.7334 77.8456 43.777 78.0944C43.8148 78.3099 43.7315 78.6171 43.7237 78.8335C43.7088 79.2438 43.686 79.7235 43.8973 80.0536C44.1878 80.5072 44.5759 80.1771 44.8874 80.3745C45.312 80.6431 45.1589 81.2017 45.3828 81.6903C45.676 82.3294 46.1268 82.133 46.5418 81.9397C47.0368 81.709 47.1151 81.6881 47.4771 82.2805C47.6427 81.973 48.0964 81.181 47.7522 80.8164Z" fill="black"/>
<path fill-rule="evenodd" clip-rule="evenodd" d="M48.4177 78.321C48.0184 78.2148 48.1757 76.5053 47.6898 77.2483C47.5075 77.5264 47.6942 78.0698 47.4909 78.3679C47.3543 78.5684 47.1812 78.4501 47.0447 78.5817C46.9217 78.6995 46.8907 78.9257 46.8184 79.0981C47.0752 79.2642 47.2738 79.2858 47.5481 79.2134C47.5481 79.5102 47.4108 80.3839 47.7633 80.3202C48.0912 80.2606 47.9986 79.3836 48.1655 79.1112C48.3349 78.8339 49.0179 78.9624 49.0814 78.573C49.16 78.0907 48.5922 78.3673 48.4177 78.321Z" fill="black"/>
</g>
<defs>
<clipPath id="clip0_13_1083">
<rect width="155" height="167" fill="white" transform="translate(0.5 0.737549)"/>
</clipPath>
</defs>
</svg>
