<svg width="64" height="69" viewBox="0 0 64 69" fill="none" xmlns="http://www.w3.org/2000/svg">
<mask id="path-1-inside-1_3_18" fill="white">
<path fill-rule="evenodd" clip-rule="evenodd" d="M42.1024 45.2112L63.8585 31.7905L41.2093 17.8189V44.257H16.4651L29.5416 68.4565L42.1024 45.2112Z"/>
</mask>
<path d="M63.8585 31.7905L64.3835 32.6416L65.7632 31.7905L64.3835 30.9394L63.8585 31.7905ZM42.1024 45.2112L41.5774 44.3601L41.3498 44.5005L41.2227 44.7358L42.1024 45.2112ZM41.2093 17.8189L41.7343 16.9678L40.2093 16.0271V17.8189H41.2093ZM41.2093 44.257V45.257H42.2093V44.257H41.2093ZM16.4651 44.257V43.257H14.7881L15.5853 44.7324L16.4651 44.257ZM29.5416 68.4565L28.6618 68.9319L29.5416 70.56L30.4213 68.9319L29.5416 68.4565ZM63.3334 30.9394L41.5774 44.3601L42.6274 46.0623L64.3835 32.6416L63.3334 30.9394ZM40.6843 18.67L63.3334 32.6416L64.3835 30.9394L41.7343 16.9678L40.6843 18.67ZM42.2093 44.257V17.8189H40.2093V44.257H42.2093ZM16.4651 45.257H41.2093V43.257H16.4651V45.257ZM30.4213 67.9811L17.3449 43.7816L15.5853 44.7324L28.6618 68.9319L30.4213 67.9811ZM41.2227 44.7358L28.6618 67.9811L30.4213 68.9319L42.9822 45.6866L41.2227 44.7358Z" fill="black" mask="url(#path-1-inside-1_3_18)"/>
</svg>
