<svg width="65" height="61" viewBox="0 0 65 61" fill="none" xmlns="http://www.w3.org/2000/svg">
<mask id="path-1-inside-1_4_27" fill="white">
<path fill-rule="evenodd" clip-rule="evenodd" d="M42.6024 37.2112L64.3585 23.7905L41.7093 9.81891V36.257H16.9651L30.0416 60.4565L42.6024 37.2112Z"/>
</mask>
<path d="M64.3585 23.7905L64.8835 24.6416L66.2632 23.7905L64.8835 22.9394L64.3585 23.7905ZM42.6024 37.2112L42.0774 36.3601L41.8498 36.5005L41.7227 36.7358L42.6024 37.2112ZM41.7093 9.81891L42.2343 8.96782L40.7093 8.02708V9.81891H41.7093ZM41.7093 36.257V37.257H42.7093V36.257H41.7093ZM16.9651 36.257V35.257H15.2881L16.0853 36.7324L16.9651 36.257ZM30.0416 60.4565L29.1618 60.9319L30.0416 62.56L30.9213 60.9319L30.0416 60.4565ZM63.8334 22.9394L42.0774 36.3601L43.1274 38.0623L64.8835 24.6416L63.8334 22.9394ZM41.1843 10.67L63.8334 24.6416L64.8835 22.9394L42.2343 8.96782L41.1843 10.67ZM42.7093 36.257V9.81891H40.7093V36.257H42.7093ZM16.9651 37.257H41.7093V35.257H16.9651V37.257ZM30.9213 59.9811L17.8449 35.7816L16.0853 36.7324L29.1618 60.9319L30.9213 59.9811ZM41.7227 36.7358L29.1618 59.9811L30.9213 60.9319L43.4822 37.6866L41.7227 36.7358Z" fill="white" mask="url(#path-1-inside-1_4_27)"/>
</svg>
